<svg width="36" height="37" viewBox="0 0 36 37" fill="none" xmlns="http://www.w3.org/2000/svg">
<rect y="0.799805" width="36" height="36" rx="12" fill="#FFD113"/>
<path d="M26.5 18.8518C26.5 14.1286 22.6944 10.2998 18 10.2998C13.3056 10.2998 9.5 14.1286 9.5 18.8518C9.5 23.1202 12.6083 26.6582 16.6719 27.2998V21.3238H14.5137V18.8518H16.6719V16.9677C16.6719 14.8243 17.9409 13.6404 19.8825 13.6404C20.8121 13.6404 21.7852 13.8074 21.7852 13.8074V15.912H20.7134C19.6575 15.912 19.3281 16.5713 19.3281 17.2483V18.8518H21.6855L21.3087 21.3238H19.3281V27.2998C23.3917 26.6582 26.5 23.1202 26.5 18.8518Z" fill="#222222"/>
</svg>
