<svg width="36" height="37" viewBox="0 0 36 37" fill="none" xmlns="http://www.w3.org/2000/svg">
<rect y="0.799805" width="36" height="36" rx="12" fill="#FFD113"/>
<path fill-rule="evenodd" clip-rule="evenodd" d="M18 10.7998C20.6104 10.7998 20.9195 10.8112 21.9462 10.857C22.9003 10.899 23.4155 11.0592 23.759 11.1927C24.2132 11.3682 24.5414 11.5819 24.881 11.9214C25.2245 12.2648 25.4344 12.589 25.61 13.043C25.7436 13.3864 25.9039 13.9052 25.9458 14.8551C25.9916 15.8852 26.0031 16.1942 26.0031 18.7998C26.0031 21.4092 25.9916 21.7183 25.9458 22.7445C25.9039 23.6982 25.7436 24.2133 25.61 24.5566C25.4344 25.0106 25.2207 25.3387 24.881 25.6782C24.5376 26.0216 24.2132 26.2314 23.759 26.4069C23.4155 26.5404 22.8965 26.7006 21.9462 26.7426C20.9157 26.7884 20.6066 26.7998 18 26.7998C15.3895 26.7998 15.0804 26.7884 14.0537 26.7426C13.0996 26.7006 12.5844 26.5404 12.2409 26.4069C11.7867 26.2314 11.4585 26.0177 11.1189 25.6782C10.7754 25.3349 10.5655 25.0106 10.3899 24.5566C10.2563 24.2133 10.0961 23.6944 10.0541 22.7445C10.0083 21.7144 9.99683 21.4054 9.99683 18.7998C9.99683 16.1904 10.0083 15.8813 10.0541 14.8551C10.0961 13.9014 10.2563 13.3864 10.3899 13.043C10.5655 12.589 10.7792 12.2609 11.1189 11.9214C11.4623 11.5781 11.7867 11.3682 12.2409 11.1927C12.5844 11.0592 13.1034 10.899 14.0537 10.857C15.0804 10.8112 15.3895 10.7998 18 10.7998ZM12.9813 18.8074C12.9813 16.0378 15.2292 13.7907 18 13.7907C20.7707 13.7907 23.0186 16.0378 23.0186 18.8074C23.0186 21.5771 20.7707 23.8241 18 23.8241C15.2292 23.8241 12.9813 21.5771 12.9813 18.8074ZM18 22.0616C16.2024 22.0616 14.7445 20.6043 14.7445 18.8074C14.7445 17.0106 16.2024 15.5533 18 15.5533C19.7975 15.5533 21.2554 17.0106 21.2554 18.8074C21.2554 20.6043 19.7975 22.0616 18 22.0616ZM23.2171 14.7635C23.862 14.7635 24.3887 14.2409 24.3887 13.5923C24.3887 12.9476 23.862 12.4211 23.2171 12.4211C22.5721 12.4211 22.0454 12.9438 22.0454 13.5923C22.0454 14.2371 22.5683 14.7635 23.2171 14.7635Z" fill="#222222"/>
</svg>
