<svg width="36" height="37" viewBox="0 0 36 37" fill="none" xmlns="http://www.w3.org/2000/svg">
<rect y="0.799805" width="36" height="36" rx="12" fill="#FFD113"/>
<path fill-rule="evenodd" clip-rule="evenodd" d="M25.2253 22.473C23.2939 24.718 18.9828 27.4415 17.9998 27.8592C17.0594 28.2587 17.1529 27.6548 17.1929 27.396C17.1947 27.3844 17.1964 27.3733 17.1979 27.3632C17.2152 27.2704 17.2583 27.0064 17.3273 26.5714C17.3618 26.3277 17.3962 25.9623 17.3014 25.7273C17.1979 25.4663 16.7927 25.3358 16.4909 25.2661C12.0677 24.6832 8.7998 21.5594 8.7998 17.8352C8.7998 13.6846 12.9213 10.2998 17.9998 10.2998C23.0697 10.2998 27.1998 13.6846 27.1998 17.8352C27.1998 19.4971 26.5531 20.9938 25.2253 22.473ZM23.9952 20.089H21.4085C21.3137 20.089 21.2361 20.0107 21.2361 19.915V15.8601C21.2361 15.7644 21.3137 15.6861 21.4085 15.6861H23.9952C24.09 15.6861 24.1676 15.7644 24.1676 15.8601V16.5214C24.1676 16.6171 24.09 16.6955 23.9952 16.6955H22.2362V17.3829H23.9952C24.09 17.3829 24.1676 17.4612 24.1676 17.5569V18.2182C24.1676 18.3139 24.09 18.3922 23.9952 18.3922H22.2362V19.0796H23.9952C24.09 19.0796 24.1676 19.1579 24.1676 19.2537V19.915C24.1676 20.0107 24.09 20.089 23.9952 20.089ZM11.8464 20.089H14.4331C14.5279 20.089 14.6055 20.0107 14.6055 19.915V19.2537C14.6055 19.1579 14.5279 19.0796 14.4331 19.0796H12.6741V15.8601C12.6741 15.7644 12.5965 15.6861 12.5017 15.6861H11.8464C11.7515 15.6861 11.6739 15.7644 11.6739 15.8601V19.915C11.6739 20.0107 11.7515 20.089 11.8464 20.089ZM15.9849 15.6861H15.3297C15.2345 15.6861 15.1573 15.764 15.1573 15.8601V19.915C15.1573 20.0111 15.2345 20.089 15.3297 20.089H15.9849C16.0801 20.089 16.1573 20.0111 16.1573 19.915V15.8601C16.1573 15.764 16.0801 15.6861 15.9849 15.6861ZM20.6066 19.915V15.8601C20.6066 15.7644 20.529 15.6861 20.4256 15.6861H19.7789C19.6841 15.6861 19.5978 15.7644 19.5978 15.8601V18.2617L17.7613 15.7644C17.7613 15.7586 17.7584 15.7528 17.7527 15.747L17.7268 15.7209H17.7182C17.7182 15.7151 17.7153 15.7122 17.7095 15.7122V15.7035H17.6923L17.6837 15.6948H17.6751C17.6693 15.6948 17.6664 15.6919 17.6664 15.6861H16.968C16.8732 15.6861 16.787 15.7644 16.787 15.8601V19.915C16.787 20.0107 16.8732 20.089 16.968 20.089H17.6147C17.7182 20.089 17.7958 20.0107 17.7958 19.915V17.5047L19.6323 20.0107C19.6438 20.0281 19.6582 20.0426 19.6754 20.0542H19.6841C19.6841 20.06 19.6869 20.0629 19.6927 20.0629L19.7013 20.0716H19.7185V20.0803H19.7358C19.7473 20.0861 19.7617 20.089 19.7789 20.089H20.4256C20.529 20.089 20.6066 20.0107 20.6066 19.915Z" fill="#222222"/>
</svg>
