<svg width="36" height="37" viewBox="0 0 36 37" fill="none" xmlns="http://www.w3.org/2000/svg">
<rect y="0.799805" width="36" height="36" rx="12" fill="#FFD113"/>
<path d="M26.8441 14.3689C26.6412 13.5572 25.9986 12.9146 25.2207 12.7116C23.7665 12.3058 18.0169 12.3058 18.0169 12.3058C18.0169 12.3058 12.2335 12.3058 10.7793 12.7116C10.0014 12.9146 9.35878 13.5572 9.15585 14.3689C8.75 15.7893 8.75 18.8332 8.75 18.8332C8.75 18.8332 8.75 21.8433 9.15585 23.2976C9.35878 24.1093 10.0014 24.718 10.7793 24.921C12.2335 25.293 18.0169 25.293 18.0169 25.293C18.0169 25.293 23.7665 25.293 25.2207 24.921C25.9986 24.718 26.6412 24.1093 26.8441 23.2976C27.25 21.8433 27.25 18.8332 27.25 18.8332C27.25 18.8332 27.25 15.7893 26.8441 14.3689ZM16.1229 21.5727V16.0937L20.9255 18.8332L16.1229 21.5727Z" fill="#222222"/>
</svg>
