<?xml version="1.0" encoding="UTF-8"?><svg xmlns="http://www.w3.org/2000/svg" viewBox="0 0 441.03 246.85"><g id="a"/><g id="b"><g id="c"><g><path d="M169.23,150.59c0,5.83-.09,11.89,.03,17.95,.1,5.38,.48,10.76,.62,16.15,.05,1.75,.5,2.63,2.46,2.8,2.32,.2,4.63,.76,6.9,1.35,2.56,.66,3.92,2.99,3.47,5.6-.42,2.49-2.36,4.11-5.03,3.83-4.23-.44-8.46-.96-12.65-1.72-2.3-.42-3.46,.35-4.03,2.46-.41,1.49-.87,2.96-1.45,4.92,2.35-.12,4.3-.19,6.24-.34,3.5-.27,5.94,1.4,6.31,4.36,.36,2.89-1.72,5.27-5.16,5.61-2.67,.27-5.37,.28-8.06,.39-1.67,.07-3.36,2.78-3.01,5.07,.32,2.11,1.91,1.5,3.27,1.37,2.42-.22,4.85-.56,7.27-.55,3.21,.01,5.32,1.98,5.49,4.77,.16,2.65-1.38,4.57-4.52,5.11-3.68,.62-7.39,1.16-11.11,1.38-7.36,.42-11.82-4.72-10.31-12.38,1.52-7.74,3.57-15.39,5.63-23.02,1.63-6.01,6.67-10.25,12.68-9.26,.22,.04,.48-.11,.27-.06,0-6.66,.03-13.15,0-19.64-.03-5.04-.16-10.08-.17-15.12,0-1.49-.28-2.33-2.06-2.57-16.04-2.13-31.9-5.15-47.26-10.41-.15-.05-.33,.01-.81,.04-.07,.87-.2,1.78-.2,2.7,.05,7.12,.09,14.25,.26,21.37,.02,.85,.57,2.07,1.25,2.48,10.89,6.45,13.16,17.82,5.34,27.83-4.07,5.21-9.28,9.13-15.11,12.18-4.1,2.14-6.97,1.26-8.57-3.06-2.31-6.26-4.14-12.7-6.11-19.09-.52-1.68-1-3.04-2.83-3.99-3.53-1.85-3.99-7.53-.57-10.58,2.23-1.99,5.22-3.63,8.12-4.24,4.01-.84,8.26-.56,12.41-.77,.33-.02,.66-.06,1.09-.11,0-2.33,0-4.56,0-6.79,.03-6,.04-11.99,.14-17.99,.02-1.47-.34-2.32-1.83-2.96-8.14-3.49-16.23-7.11-24.33-10.7-.4-.18-.79-.37-1.17-.58-1.72-.93-3.58-1.91-3.07-4.27,.54-2.45,2.71-3.27,4.82-3.14,2.1,.13,4.25,.8,6.21,1.62,10.58,4.4,20.96,9.36,31.71,13.3,14.83,5.44,30.46,7.6,46.05,9.8,26.94,3.79,54.01,4.78,81.14,3.34,21.76-1.16,42.83-6.01,63.17-13.73,13.06-4.96,25.93-10.42,38.89-15.66,1.37-.55,2.7-1.39,4.12-1.58,1.92-.26,4.06-.46,5.81,.17,1.24,.44,2.66,2.25,2.73,3.51,.06,1.08-1.48,2.75-2.7,3.29-7.91,3.55-15.95,6.83-23.9,10.31-.84,.37-1.91,1.45-1.93,2.23-.39,14.42-.64,28.84-.91,43.26,0,.42,.13,.83,.23,1.41,.76-.23,1.41-.42,2.05-.63,7.21-2.4,13.24,2.71,11.7,10.2-.64,3.09-2.23,5.99-3.41,8.96-.34,.87-.75,1.71-1.32,2.98,2.59,.94,4.89,1.89,7.27,2.62,3.24,.99,6.54,1.78,9.79,2.72,3.17,.92,4.58,3.1,3.84,5.77-.74,2.63-3.12,3.78-6.27,2.94-3.52-.94-7.08-1.81-10.53-2.97-3.42-1.15-6.74-2.64-10.35-4.08,.37,1.6,.81,3.37,1.19,5.14,.65,3.09-.51,5.36-3.04,6.02-2.64,.69-5.02-.83-5.71-3.89-1.46-6.44-2.8-12.9-4.19-19.36-.11-.51-.13-1.05-.31-1.53-1.74-4.63-1.49-6.4,2.12-9.56,1.7-1.49,2.11-3.06,2.14-5.19,.21-13.81,.55-27.62,.85-41.44,.02-.86,0-1.72,0-2.97-3.39,1.17-6.54,2.27-9.7,3.35-13.4,4.59-26.77,9.26-40.74,11.91-.64,.12-1.57,1.33-1.55,2.01,.3,9.73,.7,19.45,1.2,29.17,.04,.86,.9,2.32,1.52,2.41,8.44,1.12,15.53,11.48,14.01,22.03-1.21,8.38-6.82,14.65-14.33,15.87-8.53,1.38-16.21-4.35-17.41-13.26-.84-6.24-.25-12.47,3.07-17.91,1.65-2.7,4.52-4.64,6.79-6.98,.58-.6,1.39-1.42,1.38-2.11-.25-9.73-.62-19.45-.98-29.18,0-.24-.17-.48-.07-.2-16.18,1.07-32.16,2.13-48.62,3.22,.3,15.64,.6,31.74,.91,47.99,1.42,.13,2.44,.18,3.44,.33,2.88,.42,4.83,2.54,4.86,5.23,.03,2.76-1.81,4.61-4.96,5-10.19,1.27-15.64,9.47-12.88,19.39,.87,3.14,2.42,4.55,5.65,4.11,3.15-.42,6.21-1.54,9.31-2.33,1.92-.49,3.84-1.2,5.79-1.35,2.5-.18,4.39,1.47,4.96,3.77,.57,2.29-.33,4.69-2.64,5.65-5.95,2.46-11.99,4.79-18.55,4.76-6.39-.02-10.88-3.21-13.48-8.97-5.29-11.7-.14-29.13,12.52-33.75,.64-.23,1.4-1.32,1.39-1.99-.26-15.9-.62-31.79-.97-47.69,0-.17-.08-.34-.09-.38-16.96-1.16-33.87-2.32-50.89-3.49Zm-64.39,23.16l-.07,.21c-1.47,.11-2.98,.05-4.38,.42-.61,.16-1.53,1.33-1.41,1.82,1.26,5.22,2.68,10.4,4.09,15.58,.34,1.26,1.11,2.18,2.44,1.19,3.95-2.97,7.99-5.9,9.8-10.81,1.14-3.09,0-5.85-3.15-6.86-2.36-.76-4.88-1.05-7.32-1.54Zm181.07,28.22c-.31-3.24-1.1-6.31-3.87-8.44-2.63-2.03-6.14-1.66-7.4,1.02-1.94,4.1-2.46,8.51-1.06,12.89,1.14,3.56,5.04,4.69,8.28,2.58,2.88-1.87,3.85-4.76,4.05-8.05Zm53.67-15.41c-5.44,1.41-6.57,3.95-4.33,9.31,1.47-3.16,2.82-6.06,4.33-9.31Z"/><path d="M45.83,.97c5.32-.07,10.46,.66,15.02,3.55,7.83,4.96,10.63,16.37,5.88,25-2.16,3.93-5.06,7.46-7.72,11.1-1.45,2-1.4,2.65,.87,3.69,6.06,2.78,11.71,6.12,15.85,11.53,11.95,15.61,5.33,37.51-13.44,44.78-8.51,3.3-16.98,3.35-25.41,.03-2.29-.9-4.37-2.44-6.41-3.89-1.15-.82-2.02-1.22-3.2-.18-3.63,3.2-7.76,3.88-12.11,1.88-4.48-2.06-6.36-5.91-6.57-10.72-.52-12.41-.99-24.83-1.64-37.23-.22-4.24-.72-8.49-1.5-12.66-.36-1.94-1.39-3.93-2.63-5.49-3.78-4.74-3.84-10.73,.23-15.21,.99-1.09,2.06-2.16,3.28-2.96C18.33,6.3,31.37,1.51,45.83,.97Zm-15.95,68.8h.44c0,2.25-.03,4.51,.01,6.76,.03,1.44,.75,2.62,2.25,1.93,4.71-2.17,8.87-.63,13.21,1.24,4.27,1.83,8.36,1.02,11.77-2.26,2.69-2.59,2.84-5.77,0-8.15-2.29-1.91-4.9-3.94-7.69-4.66-5.91-1.54-12.03-2.32-18.09-3.21-.52-.08-1.7,1.32-1.8,2.13-.26,2.05-.09,4.15-.09,6.23Zm11.47-47.81c-4.77,.76-8.75,2.43-12.09,5.35-.99,.87-1.77,2.54-1.77,3.85,0,2.49,.49,5,1.02,7.45,.39,1.84,1.7,2.05,3.17,1.08,2.03-1.33,4.12-2.61,6-4.12,2.42-1.94,4.94-3.88,6.87-6.26,.93-1.16,1.2-3.55,.67-4.97-.42-1.12-2.52-1.61-3.87-2.38Z"/><path d="M224.27,7.23c7.91-.01,13.42,3.73,15.65,11.04,1.92,6.29,3.09,12.81,4.62,19.22,3.32,13.84,6.6,27.69,10.02,41.51,2.17,8.76-3.21,16.46-11.61,16.35-5.08-.07-9.43-3.24-11.25-8.21-1.35-3.67-2.1-3.95-5.98-3.68-6.99,.5-14,.8-21.01,1.07-2.13,.08-3.36,1.12-4.16,2.95-1.8,4.14-3.52,8.32-5.44,12.4-2.87,6.1-9.82,8.73-15.78,6.12-6.07-2.67-8.99-9.72-6.25-15.93,8.36-18.98,16.59-38.03,25.43-56.79,3.11-6.6,7.53-12.66,11.88-18.58,3.47-4.72,8.49-7.35,13.88-7.48Zm-8.46,52.98c2.83-.8,5.68-1.51,8.46-2.46,.53-.18,1.15-1.36,1.03-1.94-.64-3.32-1.39-6.62-2.31-9.87-.54-1.91-2.23-2.22-3.19-.54-2.18,3.83-4.22,7.76-6.11,11.75-.85,1.79,.05,2.81,2.11,3.07Z"/><path d="M339.05,33.9c0-6.43,0-12.85,0-19.28,0-5.74,3.66-9.68,9.39-10.12,5.86-.45,10.99,3.05,11.57,8.5,.49,4.55,.39,9.19,.26,13.79-.43,15.46-.97,30.92-3.94,46.15-1.14,5.85-2.64,11.72-4.73,17.29-4.05,10.76-11.32,12.86-20.91,6.41-6.73-4.53-11.59-10.92-16.6-17.15-5.17-6.43-10.41-12.8-15.6-19.21-1.21-1.49-2.54-2.72-4.64-2.16-2.09,.57-2.7,2.31-2.94,4.2-.87,6.98-1.75,13.95-2.52,20.94-.77,6.96-5.97,11.28-12.9,10.56-4.84-.5-8.54-3.87-8.28-8.43,.97-17.05,3.09-33.92,10.42-49.64,1.01-2.17,2.46-4.22,4.04-6.03,3.63-4.15,8.34-5.26,12.81-2.11,5.13,3.62,10.08,7.75,14.29,12.39,7.11,7.83,13.55,16.27,20.35,24.39,.85,1.01,1.99,2.04,3.2,2.43,2.06,.66,4.02-.8,4.29-3.35,.85-7.93,1.51-15.88,2.16-23.83,.16-1.9,.02-3.82,.02-5.72h.26Z"/><path d="M115.51,40.86c5.22-1.48,9.65-2.65,14.04-3.99,6.39-1.95,12.02,.64,14.1,6.61,2,5.7-1.01,11.88-7.21,13.82-6.2,1.94-12.55,3.45-18.88,4.94-1.94,.46-2.83,1.1-2.7,3.21,.14,2.33-.09,4.69-.14,7.03-.08,3.74,1.74,4.97,5.27,3.86,6.12-1.93,12.22-3.97,18.45-5.43,5.4-1.27,10.41,1.96,12.1,7.05,1.73,5.22-.04,10.43-5.4,12.57-8.93,3.56-17.98,7.08-27.29,9.35-11.06,2.7-19.52-3.51-22.65-15.43-.85-3.24-1.46-6.68-1.4-10.01,.28-15.1,.75-30.21,1.34-45.3,.23-5.96,1.7-11.68,5.01-16.79,3.41-5.27,7.96-8.8,14.33-9.86C126.37,.49,138.32-.19,150.32,.04c5.02,.1,8.93,4.41,9.37,9.8,.43,5.33-3.64,10.53-8.04,10.82-9.79,.64-19.56,1.54-29.35,2.26-4.09,.3-4.8,.72-5.38,4.81-.58,4.1-.9,8.23-1.42,13.13Z"/><path d="M441,52.72c.58,19.58-9.16,35.56-23.32,41.53-19.33,8.15-40.77-3.33-44.38-24.37-2.4-13.98-.71-27.73,6-40.5,3.61-6.88,8.96-12.09,15.96-15.56,3.27-1.62,6.47-1.77,9.66,.23,.56,.35,1.27,.58,1.92,.63,13.93,1.12,23.13,8.9,29.32,20.85,3.29,6.35,4.78,13.18,4.84,17.19Zm-47.99,4.65c.5,3.58,.62,6.4,1.33,9.04,2.48,9.26,12.39,12.22,19.67,5.89,11.88-10.33,6.86-28.65-1.28-34.58-6.64-4.84-14.19-2.88-16.72,4.87-1.62,4.97-2.13,10.3-3.01,14.78Z"/></g></g></g></svg>