<svg xmlns="http://www.w3.org/2000/svg" viewBox="0 0 330.52 78.91"><defs><style>.cls-1{fill:#ff5197;}.cls-2,.cls-3,.cls-5{fill:none;stroke-miterlimit:10;}.cls-2,.cls-3{stroke:#ff5197;}.cls-2{stroke-width:0.67px;}.cls-3{stroke-width:1.79px;}.cls-4{fill:#fff;}.cls-5{stroke:#fff;stroke-width:6.38px;}</style></defs><g id="圖層_2" data-name="圖層 2"><g id="我要投票"><rect class="cls-1" x="5.38" y="5.38" width="319.76" height="68.15" rx="34.07"/><rect class="cls-2" x="5.38" y="5.38" width="319.76" height="68.15" rx="34.07"/><path class="cls-3" d="M39.45,78A38.56,38.56,0,0,1,39.45.9H291.07a38.56,38.56,0,0,1,0,77.11Z"/><path class="cls-4" d="M67.94,22.75c-2.3.35-4.6.65-7,.85v5.6h9c-.3-3.7-.4-7.8-.4-12.3h5.85q0,7,.3,12.3H90.05v5.7H76.14c.2,1.7.4,3.26.65,4.56.3,1.75.65,3.35,1,4.85A52.52,52.52,0,0,0,82,36.25L87.5,39a55.47,55.47,0,0,1-7.31,12.3c1.2,2.75,2.2,4.1,3,4.1q.45,0,.9-.75a22.36,22.36,0,0,0,.85-5.3l5.65,2.35c-.6,4.1-1.75,6.9-3.55,8.5a6,6,0,0,1-3.85,1.45c-1.56,0-3.46-1.7-5.76-5.1a16,16,0,0,1-1-1.55,43.1,43.1,0,0,1-9.3,6.05l-2.75-4.9a37,37,0,0,0,9.4-6.8,44.64,44.64,0,0,1-2-6.6,55.83,55.83,0,0,1-1.4-7.86h-9.5v6c2.4-.4,4.6-.8,6.65-1.3l.75,5.5c-2.4.6-4.9,1.15-7.4,1.65v7.1c0,3-.4,4.95-1.2,6-1,1.2-2.65,1.8-5.06,1.8a24.56,24.56,0,0,1-6.25-.8l-1-6a20.66,20.66,0,0,0,6.45,1,.94.94,0,0,0,.95-.7,10.91,10.91,0,0,0,.25-2.65V47.81c-2.85.5-5.8.95-8.8,1.35l-1.2-6c3.6-.4,6.9-.8,10-1.3V34.9h-10V29.2h10v-5c-2,.2-4.15.4-6.25.5l-2-5.45c6.7-.35,12.91-.85,18.61-1.55Zm20,1.4-5.31,3.1a30.17,30.17,0,0,0-4.1-7L83.6,17.1A34.6,34.6,0,0,1,87.9,24.15Z"/><path class="cls-4" d="M141.17,17.5v5.25H128.11V25.1h11.51V38.81H116l2.75.95c-.3.65-.55,1.25-.8,1.75h24.26V47h-9.25a20.51,20.51,0,0,1-3.9,5.3c3.9,1.2,7.9,2.55,11.95,4l-2.9,5.5c-5.1-2.15-10.11-4-15-5.5a44.12,44.12,0,0,1-5,2,90.79,90.79,0,0,1-17.91,3.45l-1.75-5.5A84.92,84.92,0,0,0,114.56,54q-2.25-.6-4.35-1.05c-.6.6-1.15,1.2-1.65,1.7l-5.1-2.9a45.76,45.76,0,0,0,4.15-4.7H98.2v-5.5h13c.5-.9,1-1.8,1.4-2.7H100.55V25.1h11.16V22.75H99V17.5Zm-29.46,16V30.4H106v3.1Zm10.8,17a9.41,9.41,0,0,0,1.15-.8,13.92,13.92,0,0,0,2.5-2.65h-11.4c-.35.5-.65,1-1,1.4C116.66,49,119.56,49.71,122.51,50.46Zm.3-27.71H117V25.1h5.85ZM117,33.5h5.85V30.4H117Zm11.15,0h6.06V30.4h-6.06Z"/><path class="cls-4" d="M161.48,16.7v7.65h5.05V29.8h-5.05v8.11c1.4-.4,2.8-.81,4.1-1.26l.95,5.26c-1.65.7-3.35,1.3-5.05,1.85V54.21c0,2.9-.4,4.8-1.2,5.85s-2.65,1.8-5.05,1.8a13.31,13.31,0,0,1-4.1-.6l-1-5.85a12.77,12.77,0,0,0,4.3.75,1.07,1.07,0,0,0,1.1-.65,8.51,8.51,0,0,0,.3-2.65V45.51c-1.6.5-3.25.9-4.9,1.3L149,41c2.4-.5,4.65-1,6.85-1.55V29.8h-5.3V24.35h5.3V16.7Zm30.06,20.15V41a36,36,0,0,1-6.95,10.75,36.85,36.85,0,0,0,10.7,4.45l-2.95,5.7A38.73,38.73,0,0,1,180,55.51,42,42,0,0,1,166,61.86l-2.75-5.3a36.4,36.4,0,0,0,12.46-5,33.06,33.06,0,0,1-6.06-9.25h-1.9V36.85Zm-3.9-19.55v9.4c0,1.35.15,2.15.45,2.35a1.67,1.67,0,0,0,.75.15.54.54,0,0,0,.35-.1,1.61,1.61,0,0,0,.2-.35,24.62,24.62,0,0,0,.2-3.45l5.7,2.75c-.2,3.1-.85,5-1.85,5.75a4.43,4.43,0,0,1-1.85.7,18.72,18.72,0,0,1-2.75.2c-2.5,0-4-.25-4.55-.85-1.4-.3-2.1-2.15-2.1-5.6v-5.5h-7.26v1.6c-.14,3.7-.59,6.2-1.3,7.55a15.61,15.61,0,0,1-3.35,4.55l-4.5-4.1a11.25,11.25,0,0,0,2.85-3.2,10,10,0,0,0,1.05-4.8v-7h18ZM180,48.06a24.59,24.59,0,0,0,4.2-5.75h-8.56A23.53,23.53,0,0,0,180,48.06Z"/><path class="cls-4" d="M216.55,55.21a41.74,41.74,0,0,1-11,5.65l-2.95-5.25a41.08,41.08,0,0,0,9.6-3.9Zm30.67-9.4v5.3h-19v3.5c0,2.85-.5,4.7-1.45,5.5-1.05,1-2.85,1.55-5.4,1.55a8,8,0,0,1-3.11-.6l-1-5.85a9.32,9.32,0,0,0,4.11.95c.8,0,1.2-.8,1.2-2.5V51.11H203.05v-5.3Zm-.41-28.31v5.25H233.16v1.8h11.1V37.8H206V24.55h10.9v-1.8H203.25V17.5Zm-4.7,21.71v5H208.5v-5ZM216.9,32.55V29.8h-5.25v2.75Zm10.76-9.8h-5.25v1.8h5.25Zm-5.25,9.8h5.25V29.8h-5.25Zm18.65,21.76c1.75.6,3.45,1.1,5.15,1.5l-3.1,5.45A53.67,53.67,0,0,1,237.56,59a49.29,49.29,0,0,1-6-3.4l4.3-3.55A32,32,0,0,0,241.06,54.31Zm-7.9-21.76h5.45V29.8h-5.45Z"/><polyline class="cls-5" points="270.9 22.42 287.94 39.45 270.9 56.49"/></g></g></svg>