<svg xmlns="http://www.w3.org/2000/svg" viewBox="0 0 24.19 58.66"><defs><style>.cls-1{fill:#ff5197;}</style></defs><g id="圖層_2" data-name="圖層 2"><g id="我要投票"><path class="cls-1" d="M21.47,55.69a5.42,5.42,0,0,0-3.95,1.48c-.61.6-.58.73.18,1.06a4.37,4.37,0,0,0,5.53-1.42c.27-.44.35-.75-.29-.85Z"/><path class="cls-1" d="M19.09,53.92a5.45,5.45,0,0,0-6.13,0c-.59.46-.59.58,0,1a4.33,4.33,0,0,0,5.68-.42C18.8,54.33,18.92,54.13,19.09,53.92Z"/><path class="cls-1" d="M8.51,50.46c1.36,2.17,5.05,2.46,6.47.51C13.34,49.1,9.54,49.08,8.51,50.46Z"/><path class="cls-1" d="M11.51,47.42a5.4,5.4,0,0,0-5.83-1.89c-.5.2-.6.39-.25.84a4.36,4.36,0,0,0,5.4,1.51A4.51,4.51,0,0,0,11.51,47.42Z"/><path class="cls-1" d="M6.78,44c.51-.15,1-.29,1.52-.48A.49.49,0,0,0,8.43,43,5.38,5.38,0,0,0,3.1,40.58c-.36.08-.56.19-.38.61A5,5,0,0,0,6.78,44Z"/><path class="cls-1" d="M6.34,38.83c-.74-2.28-3.44-4-5.39-3.41C1,37.86,4.29,40,6.34,38.83Z"/><path class="cls-1" d="M0,29.8a4.44,4.44,0,0,0,3.61,4.41,4.72,4.72,0,0,0,.65,0c.45,0,.62-.22.46-.66A5.48,5.48,0,0,0,.9,29.82a3.25,3.25,0,0,0-.45-.06A3.73,3.73,0,0,0,0,29.8Z"/><path class="cls-1" d="M4.08,29.28A5.22,5.22,0,0,0,.53,24.23c-.37-.08-.53,0-.53.38A4.56,4.56,0,0,0,2.61,29,9.7,9.7,0,0,0,4.08,29.28Z"/><path class="cls-1" d="M2.79,13.34c-1.2,2.41-.18,5.22,2.1,5.91C5.75,17.93,5,14,2.79,13.34Z"/><path class="cls-1" d="M4.08,24.21a5.14,5.14,0,0,0-2.59-5.45c-.31-.13-.55-.15-.62.26C.53,21,1.25,23.19,3.17,24A6.38,6.38,0,0,0,4.08,24.21Z"/><path class="cls-1" d="M6.47,14.6c1.13-1.67.75-4.78-.65-6-.2-.17-.4-.41-.62,0-.83,1.39-1,3.71.15,5.06A10.38,10.38,0,0,0,6.47,14.6Z"/><path class="cls-1" d="M8.73,3.87c-1.9,1.92-1.81,5.19.15,6.2C10.19,8.53,10.41,5.05,8.73,3.87Z"/><path class="cls-1" d="M11.89,6.07c1.58-1.46,2.26-4.78.85-6.07C10.63,1.14,10.11,4.87,11.89,6.07Z"/><path class="cls-1" d="M22,49.71a3.84,3.84,0,0,0,1.69,5.75C24.83,54,23.89,50.46,22,49.71Z"/><path class="cls-1" d="M19.45,53.21c1.26-1.66.78-4.84-.87-5.9C16.84,48.86,17.37,52.41,19.45,53.21Z"/><path class="cls-1" d="M15.53,44.36a3.85,3.85,0,0,0,0,6C16.76,49.34,17.24,45.94,15.53,44.36Z"/><path class="cls-1" d="M12.07,46.87c1.65-1,2.16-4.11,1-5.84A3.73,3.73,0,0,0,12.07,46.87Z"/><path class="cls-1" d="M11,37.29c-2.24.85-3.2,3.91-1.76,5.6C10.81,42.35,12.17,39,11,37.29Z"/><path class="cls-1" d="M9.64,33.28a3.33,3.33,0,0,0-2.09,1.27,3.72,3.72,0,0,0-.68,3.66c0,.14.38.31.48.26A4.58,4.58,0,0,0,9.64,33.28Z"/><path class="cls-1" d="M5.52,33.86c1.73.13,3.69-2.55,3.41-4.65C6.94,28.76,4.88,31.56,5.52,33.86Z"/><path class="cls-1" d="M14.28,4.13c2.19-.06,4.7-2,5.08-3.89C17.76-.37,14.36,1.55,14.28,4.13Z"/><path class="cls-1" d="M4.9,29.24a12.67,12.67,0,0,0,1.76-.71,4.59,4.59,0,0,0,2.2-3.15c.07-.33.06-.54-.36-.56A3.79,3.79,0,0,0,4.9,29.24Z"/><path class="cls-1" d="M4.87,24.24a3.25,3.25,0,0,0,2.22-.45,4.65,4.65,0,0,0,2.19-2.37c.32-.74.24-.87-.54-.88A3.8,3.8,0,0,0,4.87,24.24Z"/><path class="cls-1" d="M8.5,15.14a5,5,0,0,0,3.83-1.85c.32-.38.31-.59-.18-.8a3.85,3.85,0,0,0-4.8,1.94.54.54,0,0,0,.21.5A5.27,5.27,0,0,0,8.5,15.14Z"/><path class="cls-1" d="M10.71,16.65c-1.8-1.13-4.69.47-5,2.73C7.42,20.06,10.05,18.65,10.71,16.65Z"/><path class="cls-1" d="M13.21,8.41a4.41,4.41,0,0,0-3.52,1.67c-.24.29-.2.47.15.64a4.67,4.67,0,0,0,5-1.14c.08-.11,0-.49-.09-.53C14.18,8.76,13.54,8.54,13.21,8.41Z"/><path class="cls-1" d="M12.41,6.51C13.47,7.8,16.75,7.78,18,6.24,17.24,4.75,14.09,4.45,12.41,6.51Z"/></g></g></svg>