<svg xmlns="http://www.w3.org/2000/svg" viewBox="0 0 24.19 58.66"><defs><style>.cls-1{fill:#ff5197;}</style></defs><g id="圖層_2" data-name="圖層 2"><g id="我要投票"><path class="cls-1" d="M2.72,55.69a5.46,5.46,0,0,1,4,1.48c.6.6.58.73-.19,1.06A4.36,4.36,0,0,1,1,56.81c-.28-.44-.35-.75.28-.85Z"/><path class="cls-1" d="M5.1,53.92a5.47,5.47,0,0,1,6.14,0c.58.46.58.58,0,1a4.34,4.34,0,0,1-5.69-.42C5.39,54.33,5.27,54.13,5.1,53.92Z"/><path class="cls-1" d="M15.68,50.46c-1.35,2.17-5,2.46-6.46.51C10.85,49.1,14.65,49.08,15.68,50.46Z"/><path class="cls-1" d="M12.68,47.42a5.4,5.4,0,0,1,5.83-1.89c.5.2.6.39.25.84a4.36,4.36,0,0,1-5.4,1.51A5.08,5.08,0,0,1,12.68,47.42Z"/><path class="cls-1" d="M17.41,44c-.51-.15-1-.29-1.52-.48a.49.49,0,0,1-.13-.48,5.38,5.38,0,0,1,5.33-2.45c.36.08.56.19.39.61A5,5,0,0,1,17.41,44Z"/><path class="cls-1" d="M17.86,38.83c.73-2.28,3.44-4,5.38-3.41C23.2,37.86,19.9,40,17.86,38.83Z"/><path class="cls-1" d="M24.15,29.8a4.44,4.44,0,0,1-3.61,4.41,4.64,4.64,0,0,1-.65,0c-.45,0-.62-.22-.45-.66a5.47,5.47,0,0,1,3.85-3.76,3.47,3.47,0,0,1,.45-.06A3.51,3.51,0,0,1,24.15,29.8Z"/><path class="cls-1" d="M20.11,29.28a5.24,5.24,0,0,1,3.55-5.05c.37-.08.54,0,.53.38A4.55,4.55,0,0,1,21.59,29,10.12,10.12,0,0,1,20.11,29.28Z"/><path class="cls-1" d="M21.4,13.34c1.2,2.41.19,5.22-2.09,5.91C18.44,17.93,19.21,14,21.4,13.34Z"/><path class="cls-1" d="M20.11,24.21a5.14,5.14,0,0,1,2.59-5.45c.31-.13.55-.15.62.26C23.66,21,22.94,23.19,21,24A6.89,6.89,0,0,1,20.11,24.21Z"/><path class="cls-1" d="M17.72,14.6c-1.13-1.67-.75-4.78.65-6,.2-.17.4-.41.62,0,.83,1.39,1.05,3.71-.15,5.06A10.38,10.38,0,0,1,17.72,14.6Z"/><path class="cls-1" d="M15.46,3.87c1.9,1.92,1.81,5.19-.14,6.2C14,8.53,13.79,5.05,15.46,3.87Z"/><path class="cls-1" d="M12.3,6.07C10.72,4.61,10,1.29,11.45,0,13.56,1.14,14.09,4.87,12.3,6.07Z"/><path class="cls-1" d="M2.17,49.71A3.83,3.83,0,0,1,.48,55.46C-.63,54,.3,50.46,2.17,49.71Z"/><path class="cls-1" d="M4.74,53.21c-1.25-1.66-.78-4.84.87-5.9C7.35,48.86,6.82,52.41,4.74,53.21Z"/><path class="cls-1" d="M8.66,44.36a3.85,3.85,0,0,1,.05,6C7.44,49.34,7,45.94,8.66,44.36Z"/><path class="cls-1" d="M12.13,46.87c-1.66-1-2.17-4.11-1-5.84A3.74,3.74,0,0,1,12.13,46.87Z"/><path class="cls-1" d="M13.21,37.29c2.23.85,3.2,3.91,1.76,5.6C13.39,42.35,12,39,13.21,37.29Z"/><path class="cls-1" d="M14.55,33.28a3.33,3.33,0,0,1,2.09,1.27,3.72,3.72,0,0,1,.68,3.66.54.54,0,0,1-.48.26A4.58,4.58,0,0,1,14.55,33.28Z"/><path class="cls-1" d="M18.67,33.86c-1.73.13-3.69-2.55-3.4-4.65C17.26,28.76,19.31,31.56,18.67,33.86Z"/><path class="cls-1" d="M9.91,4.13c-2.19-.06-4.7-2-5.07-3.89C6.43-.37,9.83,1.55,9.91,4.13Z"/><path class="cls-1" d="M19.29,29.24a12.67,12.67,0,0,1-1.76-.71,4.62,4.62,0,0,1-2.2-3.15c-.07-.33-.05-.54.36-.56A3.79,3.79,0,0,1,19.29,29.24Z"/><path class="cls-1" d="M19.32,24.24a3.26,3.26,0,0,1-2.22-.45,4.65,4.65,0,0,1-2.19-2.37c-.31-.74-.24-.87.55-.88A3.79,3.79,0,0,1,19.32,24.24Z"/><path class="cls-1" d="M15.7,15.14a5,5,0,0,1-3.84-1.85c-.32-.38-.31-.59.18-.8a3.84,3.84,0,0,1,4.8,1.94.54.54,0,0,1-.2.5A5.67,5.67,0,0,1,15.7,15.14Z"/><path class="cls-1" d="M13.48,16.65c1.8-1.13,4.69.47,5,2.73C16.78,20.06,14.14,18.65,13.48,16.65Z"/><path class="cls-1" d="M11,8.41a4.43,4.43,0,0,1,3.53,1.67c.24.29.19.47-.15.64a4.68,4.68,0,0,1-5-1.14c-.07-.11,0-.49.09-.53C10,8.76,10.65,8.54,11,8.41Z"/><path class="cls-1" d="M11.78,6.51C10.72,7.8,7.45,7.78,6.16,6.24,7,4.75,10.11,4.45,11.78,6.51Z"/></g></g></svg>