<svg width="20" height="21" viewBox="0 0 20 21" fill="none" xmlns="http://www.w3.org/2000/svg">
<path d="M16.6009 10.4001H18.251M10.0003 3.79975V2.14966M10.0003 17.0007V18.6508M3.39991 10.4001H1.74982M16.1885 10.4005C16.1885 13.818 13.4181 16.5883 10.0007 16.5883C6.5832 16.5883 3.81281 13.818 3.81281 10.4005C3.81281 6.98304 6.5832 4.21265 10.0007 4.21265C13.4181 4.21265 16.1885 6.98304 16.1885 10.4005ZM12.4755 10.4002C12.4755 11.7672 11.3673 12.8753 10.0003 12.8753C8.63337 12.8753 7.52521 11.7672 7.52521 10.4002C7.52521 9.03321 8.63337 7.92505 10.0003 7.92505C11.3673 7.92505 12.4755 9.03321 12.4755 10.4002Z" stroke="#222222" stroke-width="2" stroke-linecap="square" stroke-linejoin="round"/>
</svg>
