<?xml version="1.0" encoding="utf-8"?>
<!-- Generator: Adobe Illustrator 25.4.1, SVG Export Plug-In . SVG Version: 6.00 Build 0)  -->
<svg version="1.1" id="レイヤー_1" xmlns="http://www.w3.org/2000/svg" xmlns:xlink="http://www.w3.org/1999/xlink" x="0px"
	 y="0px" viewBox="0 0 120 120" style="enable-background:new 0 0 120 120;" xml:space="preserve">
<style type="text/css">
	.st0{fill:#50A46A;}
	.st1{fill:#333333;}
	.st2{fill:#FFFFFF;}
</style>
<!-- <rect class="st0" width="120" height="120"/> -->
<g>
	<g>
		<g>
			<path class="st2" d="M50.13,62.83c0.07-2.21-0.08-4.47,0.36-6.65c-0.47,0.47-0.94,0.94-1.41,1.41c1.42-0.33,2.92-0.14,4.36-0.28
				c1.21-0.12,2.42-1.21,1.95-2.56c-1.22-3.54-0.73-7.38,1.5-10.43c2.45-3.35,6.46-4.73,10.49-4.56c-0.65-0.5-1.3-0.99-1.95-1.49
				c0.48,1.16,0.27,2.48,0.2,3.7c-0.05,0.72-0.1,1.44-0.09,2.17c0.01,0.27,0.03,0.54,0.05,0.82c0.02,0.17,0.04,0.34,0.05,0.51
				c-0.02,0.46,0.01,0.38,0.1-0.22c0.24-0.24,0.48-0.48,0.73-0.73c0.31-0.06,0.62-0.11,0.93-0.17c-0.09-0.01-0.17-0.04-0.25-0.09
				c-0.12-0.11-0.43-0.21-0.56-0.26c-0.46-0.16-0.95-0.22-1.43-0.2c-0.83,0.03-1.66,0.29-2.37,0.72c-1.44,0.87-2.35,2.34-2.97,3.86
				c-1.06,2.61-1.55,6.21,0.32,8.56c0.47,0.59,1.3,0.63,1.97,0.52c2.38-0.38,5.04-0.73,7.42-0.21c-0.16-1.23-0.32-2.47-0.48-3.7
				c-2.34,1.23-2.92,3.45-4.01,5.64c-0.43,0.86-0.68,1.27-1.54,1.48c-1.22,0.3-2.48,0.64-3.17,1.79c-0.16,0.27-0.25,0.57-0.31,0.87
				c-0.26,1.23,0,0.47,0.01,0.32c-0.02,0.36-0.1,0.71-0.12,1.07c-0.04,0.67-0.03,1.35-0.03,2.02c0.01,1.82,0.06,3.64,0.07,5.46
				c0.01,1.85,0.01,3.72-0.14,5.57c-0.01,0.18-0.14,1.22-0.08,0.83c-0.04,0.27-0.09,0.53-0.15,0.79c-0.03,0.13-0.08,0.26-0.11,0.39
				c-0.1,0.41,0.24-0.38,0.03-0.07c-0.14,0.21,0.04-0.12,0.17-0.19c-0.18,0.1,0.97-0.44,1.01-0.43c-0.78-0.19-1.91,0.21-2.67,0.39
				c-0.33,0.08-2.62,0.47-2.61,0.45c0.06-0.18,0.56,0.32,0.55,0.3c0.25,0.25,0.2,0.98,0.34,0.49c0.09-0.35-0.11-1.06-0.13-1.43
				c-0.03-0.48-0.05-0.95-0.06-1.43c-0.04-1.82,0.07-3.65,0.2-5.47c0.15-1.98,0.34-3.96,0.42-5.94c0.07-1.66,0.48-3.9-1.16-4.95
				c-0.96-0.61-2.16-0.53-3.24-0.41c-0.53,0.06-1.05,0.14-1.58,0.17c-0.21,0.01-0.52-0.03-0.72,0.02c-0.39,0.11,0.15,0.11-0.03-0.02
				c-2.14-1.5-4.17,2.01-2.04,3.5c0.87,0.61,2.04,0.62,3.05,0.53c0.44-0.04,0.88-0.1,1.32-0.15c0.25-0.03,0.5-0.06,0.76-0.07
				c0.15-0.01,0.31-0.02,0.46-0.02c0.27,0.02,0.28,0.01,0.05-0.02c-0.06-0.03-0.12-0.07-0.19-0.1c-0.56-1.06-0.79-1.18-0.68-0.38
				c-0.11,0.4-0.01,1.01-0.03,1.43c-0.03,0.79-0.07,1.59-0.13,2.38c-0.13,1.98-0.33,3.96-0.44,5.94c-0.1,1.82-0.13,3.65,0.02,5.47
				c0.12,1.4,0.12,2.82,1.44,3.67c1.83,1.19,4.33,0.21,6.25-0.22c0.54-0.12,0.87,0.06,1.65-0.18c0.94-0.29,1.49-1.07,1.82-1.95
				c0.55-1.45,0.58-3.14,0.65-4.67c0.16-3.71-0.1-7.42,0-11.13c0.01-0.27,0.03-0.54,0.04-0.81c0-0.15,0.06-0.6-0.03,0.16
				c0.17-1.5-0.05,0.37-0.41,0.2c0.25,0.12,1.47-0.37,1.76-0.47c0.68-0.23,1.28-0.63,1.8-1.13c1.03-0.98,1.58-2.26,2.12-3.55
				c0.44-1.06,0.83-2.09,1.89-2.65c1.51-0.79,1.2-3.33-0.48-3.7c-3.14-0.69-6.44-0.29-9.57,0.21c0.66,0.17,1.31,0.35,1.97,0.52
				c0.24,0.3,0.14-0.07,0.16,0.26c-0.01-0.15-0.11-0.34-0.14-0.5c-0.14-0.55,0.01,0.37-0.04-0.24c-0.02-0.22-0.02-0.43-0.02-0.65
				c0-0.9,0.13-1.62,0.42-2.56c0.23-0.72,0.66-1.56,1.05-2.01c0.45-0.53,0.6-0.58,1.38-0.49c-0.34-0.09-0.68-0.18-1.02-0.28
				c1.12,0.54,2.4,1.16,3.61,0.49c1.26-0.7,1.33-2.02,1.23-3.29c-0.18-2.47,0.69-5.23-0.29-7.6c-0.36-0.87-0.97-1.45-1.95-1.49
				c-5.41-0.23-10.58,1.94-13.82,6.34c-2.89,3.92-3.66,9.19-2.07,13.78c0.65-0.85,1.3-1.71,1.95-2.56
				c-1.82,0.18-3.64,0.02-5.44,0.43c-0.64,0.15-1.28,0.76-1.41,1.41c-0.52,2.55-0.43,5.13-0.51,7.72
				C46,65.44,50.05,65.44,50.13,62.83L50.13,62.83z"/>
		</g>
	</g>
	<g>
		<g>
			<path class="st2" d="M54.84,90.4c-6.96,0.31-13.95-1.4-19.37-5.96c-4.89-4.12-8.16-9.79-10.03-15.85
				c-1.88-6.09-2.46-12.58-1.71-18.91c0.88-7.4,6.63-13.71,12.77-17.64c7.18-4.59,15.77-6.98,24.27-7.07
				c3.74-0.04,7.27-0.14,10.91,0.9c3.08,0.88,5.99,2.39,8.49,4.39c10,8.02,14.32,22.39,13.53,34.84c-0.45,7.02-5.56,12.93-11,16.92
				c-6.39,4.68-14.2,7.91-22.12,8.64c-1.91,0.18-3.83,0.21-5.75,0.07c-2.6-0.18-2.59,3.87,0,4.05c8.7,0.61,17.63-2.02,25.18-6.24
				c7.1-3.97,13.79-9.9,16.6-17.73c1.18-3.29,1.32-6.84,1.18-10.31c-0.15-3.58-0.67-7.17-1.53-10.65
				c-1.75-7.07-4.98-13.94-9.93-19.34c-5.12-5.59-12.04-9.01-19.6-9.6c-2.11-0.17-4.22-0.03-6.33,0.01
				c-2.42,0.04-4.84,0.28-7.23,0.66c-4.6,0.72-9.06,2.09-13.29,4.02c-7.91,3.6-15.12,9.62-18.58,17.74
				c-2.79,6.55-2.31,14.64-0.98,21.5c1.36,7.01,4.3,13.81,9.01,19.23c4.94,5.69,11.77,9.18,19.22,10.14
				c2.08,0.27,4.18,0.33,6.28,0.24C57.43,94.33,57.45,90.28,54.84,90.4L54.84,90.4z"/>
		</g>
	</g>
</g>
</svg>
