<?xml version="1.0" encoding="utf-8"?>
<!-- Generator: Adobe Illustrator 25.4.1, SVG Export Plug-In . SVG Version: 6.00 Build 0)  -->
<svg version="1.1" id="レイヤー_1" xmlns="http://www.w3.org/2000/svg" xmlns:xlink="http://www.w3.org/1999/xlink" x="0px"
	 y="0px" viewBox="0 0 90 90" style="enable-background:new 0 0 90 90;" xml:space="preserve">
<style type="text/css">
	.st0{fill:#50A46A;}
	.st1{fill:#333333;}
	.st2{fill:#FFFFFF;}
</style>
<g>
	<g>
		<g>
			<path class="st1" d="M43.42,53.2c-2.82,0.06-5.63,0.68-8.27-0.65c-1.04-0.52-2.12-1.06-3.07-1.73c-1.09-0.77-1.66-1.58-2.34-2.7
				c-0.64-1.06-1.32-2.22-1.66-3.41c-0.41-1.44-0.61-2.91-0.81-4.39c-0.4-3,0.28-5.71,1.77-8.31c1.41-2.46,3.12-4.43,5.62-5.8
				c2.43-1.32,5.43-1.62,8.14-1.73c2.74-0.12,5.8,0.17,7.91,2.06c2.01,1.79,3.36,4.34,4.26,6.85c0.97,2.69,1.62,5.69,0.93,8.52
				c-0.37,1.51-0.72,3.09-1.44,4.48c-0.37,0.71-0.87,1.3-1.36,1.93c-0.38,0.5-0.8,1.19-1.4,1.45c-1.32,0.57-0.18,2.51,1.14,1.94
				c1.17-0.51,2.03-1.97,2.76-2.94c1.01-1.33,1.62-2.99,2.07-4.59c0.84-2.98,0.98-5.99,0.26-9.02c-0.71-3.01-2.17-6.08-4.09-8.5
				c-0.85-1.07-1.78-2.13-2.94-2.89c-1.35-0.89-3.3-1.25-4.87-1.46c-3.26-0.43-6.89-0.02-10.02,0.93c-2.94,0.89-5.32,2.58-7.16,5.02
				c-1.93,2.56-3.65,5.53-3.95,8.79c-0.16,1.73,0.12,3.48,0.37,5.19c0.24,1.63,0.53,3.32,1.32,4.79c0.71,1.33,1.36,2.77,2.29,3.96
				c1.02,1.31,2.62,2.13,4.05,2.9c1.54,0.83,2.95,1.47,4.7,1.71c1.92,0.26,3.87-0.12,5.79-0.16C44.86,55.42,44.87,53.17,43.42,53.2
				L43.42,53.2z"/>
		</g>
	</g>
	<g>
		<g>
			<path class="st1" d="M43.35,54.52c0.09,0.6,0.62,1.28,0.93,1.81c0.39,0.66,0.8,1.27,1.14,1.96c0.67,1.33,1.34,2.72,2.11,4
				c0.8,1.33,1.49,2.72,2.33,4.04c0.77,1.2,1.48,2.34,2.78,2.99c1.26,0.63,2.88,0.92,4.23,0.38c1.26-0.5,2.37-1.47,3.01-2.68
				c1.5-2.81,0.06-5.83-1.4-8.3c-0.89-1.5-1.48-3.13-2.39-4.62c-0.79-1.28-1.31-2.89-2.42-3.95c-1.04-1-2.64,0.59-1.59,1.59
				c0.48,0.46,0.72,1.09,1.04,1.67c0.36,0.65,0.71,1.33,1.1,1.96c0.9,1.43,1.45,3.03,2.31,4.49c0.79,1.34,1.83,2.9,1.73,4.54
				c-0.07,1.28-0.77,2.59-1.99,3.12c-1.28,0.56-2.88-0.01-3.65-1.11c-0.98-1.39-1.9-2.85-2.64-4.38c-0.66-1.38-1.48-2.73-2.22-4.08
				c-0.38-0.7-0.7-1.44-1.14-2.12c-0.22-0.35-0.44-0.68-0.64-1.04c-0.12-0.23-0.45-0.62-0.48-0.87c-0.09-0.61-0.85-0.93-1.38-0.79
				C43.49,53.3,43.27,53.92,43.35,54.52L43.35,54.52z"/>
		</g>
	</g>
	<g>
		<g>
			<path class="st1" d="M45.36,46.46c-0.77,0.16-1.39,0.65-2.18,0.82c-1.13,0.24-2.28,0.18-3.43,0.17c-1.86-0.01-3.7-0.24-5.2-1.45
				c-0.74-0.6-1.04-1.35-1.27-2.25c-0.25-1.02-0.58-2.1-0.65-3.16c-0.12-1.86,0.07-3.73,0.64-5.51c0.59-1.85,2.03-3.28,3.76-4.1
				c1.69-0.81,3.73-0.7,5.55-0.67c1.94,0.04,3.81,0.79,5.1,2.25c1.2,1.35,1.71,3.1,1.91,4.87c0.23,2.08,0.33,4.42-0.97,6.19
				c-0.28,0.39-0.66,0.69-0.98,1.05c-0.3,0.33-0.53,0.69-0.92,0.91c-0.69,0.39-1.3,0.51-1.56,1.37c-0.42,1.39,1.75,1.98,2.17,0.6
				c-0.11,0.37-0.35,0.33,0.15,0.15c0.17-0.06,0.33-0.14,0.48-0.23c0.45-0.26,0.75-0.6,1.08-0.99c0.69-0.81,1.44-1.47,1.96-2.41
				c1.11-1.98,1.07-4.46,0.83-6.64c-0.24-2.24-0.84-4.45-2.33-6.19c-1.5-1.76-3.4-2.65-5.65-3.06c-1.14-0.21-2.46-0.17-3.62-0.13
				c-1.12,0.04-2.43,0.23-3.49,0.62c-2.07,0.76-3.83,2.27-4.95,4.16c-1.16,1.95-1.44,4.54-1.43,6.76c0.01,1.1,0.12,2.15,0.37,3.22
				c0.28,1.18,0.47,2.47,1.11,3.52c1.23,2.01,3.82,3.11,6.07,3.35c1.44,0.15,3.07,0.13,4.52-0.01c0.63-0.06,1.26-0.16,1.87-0.33
				c0.57-0.16,1.06-0.57,1.63-0.69C47.37,48.35,46.77,46.18,45.36,46.46L45.36,46.46z"/>
		</g>
	</g>
	<g>
		<g>
			<path class="st1" d="M40.69,39.57c-0.27-0.02,0.25,0.07,0.02,0c-0.05-0.01-0.11-0.04-0.16-0.05c0.06,0.02,0.12,0.05,0.18,0.07
				c-0.1-0.06-0.06-0.03,0.11,0.1c-0.14-0.13,0.06-0.03,0.06,0.09c0-0.01-0.06-0.12-0.07-0.13c0.1,0.07,0.1,0.26,0.03,0.06
				c-0.06-0.17-0.11-0.34-0.17-0.52c-0.05-0.15-0.08-0.29-0.12-0.44c-0.07-0.26-0.03,0.21,0-0.06c0-0.03,0-0.06,0-0.09
				c0.01-0.14,0.01-0.13-0.01,0.03c-0.01-0.01,0.05-0.22,0.06-0.22c-0.02,0.04-0.04,0.08-0.05,0.12c0.02-0.05,0.05-0.1,0.07-0.14
				c0.04-0.07,0.09-0.14,0.13-0.21c0.07-0.1,0.06-0.09-0.03,0.03c0.04-0.04,0.07-0.08,0.11-0.13c0.1-0.1,0.2-0.19,0.3-0.29
				c0.2-0.19-0.19,0.12,0.04-0.03c0.07-0.04,0.13-0.09,0.2-0.14c0.04-0.02,0.39-0.24,0.41-0.22c-0.05,0.02-0.09,0.04-0.14,0.06
				c0.04-0.02,0.09-0.03,0.14-0.05c0.09-0.03,0.18-0.06,0.28-0.09c0.07-0.02,0.14-0.03,0.21-0.05c0.19-0.05-0.06,0.01-0.09,0.01
				c0.11,0.03,0.31-0.02,0.43-0.02c0.06,0,0.15,0.03,0.21,0.01c-0.05-0.01-0.11-0.01-0.16-0.02c0.05,0.01,0.09,0.02,0.14,0.03
				c0.07,0.02,0.13,0.04,0.2,0.06c0.11,0.04,0.09,0.03-0.08-0.03c0.04,0.02,0.08,0.04,0.12,0.06c0.02,0.01,0.04,0.02,0.06,0.04
				c0.1,0.07,0.08,0.05-0.06-0.05c0,0.02,0.14,0.13,0.16,0.14c0.03,0.03,0.06,0.08,0.1,0.11c-0.18-0.14-0.08-0.1-0.02,0
				c0.06,0.1,0.11,0.19,0.16,0.29c0.03,0.06,0.05,0.11,0.08,0.17c0.08,0.17-0.1-0.26,0.01,0.04c0.09,0.24,0.17,0.49,0.22,0.74
				c0,0.02,0.01,0.05,0.01,0.07c0.02,0.12,0.02,0.09-0.01-0.09c-0.01,0.06,0.01,0.14,0.02,0.2c0,0.07,0,0.13,0,0.2
				c-0.01,0.31,0.06-0.17,0,0.01c-0.02,0.05-0.05,0.12-0.05,0.17c0.02-0.05,0.04-0.11,0.07-0.16c-0.02,0.03-0.04,0.07-0.06,0.1
				c0.02-0.15,0.17-0.18,0.03-0.05c-0.03,0.03-0.07,0.07-0.11,0.09c0.23-0.15-0.02,0.01-0.06,0.03c-0.07,0.05-0.15,0.1-0.23,0.14
				c-0.08,0.04-0.15,0.09-0.23,0.12c-0.05,0.03-0.11,0.05-0.16,0.07c0.13-0.06,0.14-0.06,0.02-0.02c-0.17,0.05-0.33,0.11-0.51,0.14
				c-0.06,0.01-0.32,0.1-0.05,0.02c-0.08,0.02-0.19,0.02-0.26,0.02c-0.25,0.01-0.5,0.02-0.74,0.02c-0.25,0.01-0.5,0.01-0.75,0
				c-0.05,0-0.1-0.01-0.15-0.01c-0.15-0.01,0.3,0.06,0.09,0.01c-0.13-0.03-0.26-0.07-0.38-0.11c0.28,0.07,0.17,0.08,0.07,0.02
				c-0.13-0.07-0.08-0.13,0.05,0.05c-0.02-0.03-0.09-0.1-0.12-0.12c0.16,0.1,0.13,0.19,0.04,0.04c-0.01-0.02-0.02-0.04-0.03-0.05
				c-0.05-0.1-0.04-0.07,0.04,0.1c0-0.01-0.03-0.11-0.04-0.13c-0.02-0.08-0.03-0.16-0.05-0.23c-0.01-0.06-0.02-0.12-0.03-0.18
				c0.02,0.15,0.02,0.16,0.01,0.03c-0.01-0.17-0.03-0.35-0.03-0.52c0-0.13-0.03-0.38,0.03-0.5c-0.01,0.05-0.01,0.09-0.02,0.14
				c0.01-0.05,0.02-0.11,0.03-0.16c0.02-0.08,0.03-0.16,0.05-0.24c0.04-0.14,0.07-0.36,0.15-0.47c-0.15,0.21-0.01,0.03,0.02-0.04
				c0.04-0.08,0.08-0.16,0.12-0.24c0.08-0.15,0.17-0.35,0.29-0.47c-0.2,0.2,0,0.03,0.03-0.01c0.16-0.18-0.2,0.1,0.01,0
				c0.02-0.01,0.04-0.02,0.06-0.04c0.09-0.04,0.08-0.04-0.01-0.01c-0.09,0.04-0.09,0.04,0,0c0.04-0.02,0.09-0.03,0.13-0.04
				c0.03-0.01,0.19-0.02,0.21-0.04c-0.05,0.01-0.1,0.01-0.16,0.02c0.05-0.01,0.1-0.01,0.15-0.01c0.15-0.01,0.3-0.01,0.45-0.01
				c0.15,0,0.3,0.01,0.46,0.02c0.08,0,0.15,0,0.23,0.01c0.13,0.01,0.22,0.06-0.04-0.02c0.12,0.04,0.25,0.05,0.37,0.09
				c0.15,0.05,0.12,0.12-0.04-0.02c0.04,0.04,0.12,0.06,0.17,0.09c0.05,0.03,0.1,0.07,0.16,0.1c0.19,0.12-0.2-0.18-0.03-0.03
				c0.1,0.09,0.2,0.19,0.29,0.28c0.08,0.08,0.08,0.17-0.04-0.06c0.03,0.05,0.08,0.1,0.11,0.16c0.07,0.11,0.13,0.22,0.18,0.33
				c0.11,0.21-0.09-0.26-0.01-0.04c0.02,0.06,0.04,0.12,0.06,0.18c0.02,0.06,0.03,0.12,0.05,0.18c0.01,0.04,0.02,0.08,0.02,0.12
				c0.02,0.12,0.01,0.08-0.01-0.11c-0.01,0.1,0.02,0.22,0.01,0.32c0,0.06-0.02,0.13-0.01,0.19c-0.04-0.23,0.03-0.2,0-0.05
				c-0.02,0.11-0.1,0.26-0.11,0.37c0.01-0.2,0.08-0.18,0.01-0.03c-0.04,0.08-0.09,0.15-0.14,0.23c-0.12,0.2,0.18-0.17-0.01,0
				c-0.04,0.04-0.07,0.08-0.11,0.11c-0.04,0.04-0.12,0.14-0.17,0.16c0.03-0.03,0.07-0.05,0.1-0.08c-0.04,0.03-0.09,0.06-0.13,0.09
				c-0.14,0.09-0.28,0.16-0.42,0.24c-0.24,0.13,0.23-0.07-0.03,0.01c-0.1,0.03-0.2,0.07-0.31,0.1c-0.08,0.02-0.15,0.04-0.23,0.06
				c-0.03,0.01-0.05,0.01-0.08,0.02c-0.1,0.02-0.1,0.02,0,0c0.02,0,0.05-0.01,0.07-0.01c-0.05,0.01-0.1,0.01-0.15,0.01
				c-0.07,0.01-0.15,0.01-0.22,0.01c-0.16,0-0.33,0-0.5,0.01c-0.26,0.02,0.23,0.07-0.01-0.01c0.1,0.02,0.18,0.07,0.25,0.14
				c-0.08-0.08-0.05-0.04,0.08,0.12c0-0.02-0.08-0.12-0.09-0.14c-0.07-0.12-0.02-0.19,0.01,0.05c-0.01-0.1-0.08-0.22-0.11-0.32
				c-0.08-0.28-0.14-0.58-0.18-0.87c-0.01-0.09-0.01-0.3,0.01,0.06c0-0.05-0.01-0.1-0.02-0.15c-0.01-0.1-0.02-0.21-0.03-0.31
				c-0.01-0.14-0.01-0.29,0-0.43c0-0.02,0-0.05,0.01-0.07c0.01-0.12,0.01-0.09-0.02,0.09c0.04-0.07,0.03-0.19,0.06-0.27
				c0.02-0.06,0.04-0.13,0.06-0.19c0.07-0.22-0.13,0.23-0.01,0.03c0.03-0.05,0.06-0.11,0.09-0.17c0.1-0.19-0.15,0.14-0.04,0.05
				c0.04-0.03,0.07-0.08,0.11-0.12c0.14-0.14,0.1,0-0.03,0.01c0.04,0,0.14-0.08,0.17-0.1c0.11-0.05,0.08-0.04-0.08,0.03
				c0.04-0.02,0.09-0.03,0.13-0.05c0.07-0.02,0.14-0.04,0.22-0.05c0.26-0.06-0.25,0.01,0,0.01c0.23,0-0.26-0.08-0.06-0.01
				c-0.06-0.03-0.11-0.05-0.17-0.08c0.1,0.06,0.07,0.03-0.1-0.09c0.03,0.02,0.06,0.05,0.08,0.07c-0.22-0.28-0.08-0.1-0.03-0.04
				c0.09,0.14,0.16,0.29,0.23,0.44c0.11,0.23-0.09-0.24,0,0.01c0.03,0.08,0.06,0.15,0.08,0.23c0.05,0.16,0.1,0.32,0.14,0.48
				c0.02,0.07,0.03,0.14,0.04,0.2c0,0.01,0,0.03,0.01,0.04c0.02,0.13,0.02,0.11-0.01-0.06c0.03,0.03,0.01,0.2,0.01,0.24
				c0,0.05,0,0.1,0,0.15c-0.01,0.13-0.01,0.1,0.01-0.08c-0.01,0.01-0.05,0.18-0.05,0.2c0.01-0.23,0.13-0.25,0.05-0.12
				c-0.02,0.03-0.05,0.07-0.07,0.11c0.08-0.23,0.17-0.2,0.07-0.1c-0.05,0.05-0.12,0.1-0.16,0.15c0.15-0.2,0.2-0.14,0.08-0.07
				c-0.05,0.03-0.11,0.07-0.16,0.1c-0.04,0.02-0.09,0.04-0.13,0.06c-0.17,0.1,0.28-0.1,0.09-0.04c-0.09,0.03-0.18,0.06-0.28,0.09
				c-0.05,0.01-0.09,0.02-0.14,0.03c-0.19,0.05,0.31-0.02,0.11-0.01c-0.09,0-0.18,0.01-0.27,0.01c-0.04,0-0.09-0.01-0.13-0.01
				c0.33-0.01,0.25,0.05,0.13,0.01c-0.04-0.01-0.08-0.03-0.12-0.04c-0.17-0.04,0.26,0.15,0.12,0.05c-0.25-0.18,0.18,0.19,0.01,0.01
				c-0.12-0.12,0.16,0.23,0.09,0.12c-0.09-0.14,0.02-0.11,0.03,0.11c0-0.03-0.03-0.09-0.04-0.12c-0.07-0.17,0,0.3,0.02,0.11
				c0-0.05,0-0.11,0-0.16c-0.01-0.21-0.07,0.26-0.01,0.08c0.01-0.05,0.03-0.1,0.04-0.14c0.04-0.16,0.11-0.06-0.04,0.09
				c0.04-0.04,0.13-0.19,0.14-0.24c-0.05,0.19-0.17,0.2-0.06,0.08c0.03-0.03,0.07-0.07,0.1-0.1c0.09-0.1,0.16-0.05-0.08,0.06
				c0.04-0.02,0.08-0.06,0.12-0.08c0.08-0.05,0.18-0.08,0.25-0.14c-0.19,0.15-0.23,0.08-0.09,0.04c0.05-0.02,0.11-0.03,0.16-0.05
				c0.04-0.01,0.08-0.02,0.11-0.03c0.14-0.03,0.16,0.04-0.11,0.01c0.09,0.01,0.19-0.01,0.28-0.01c0.04,0,0.09,0.01,0.13,0.01
				c-0.31,0.02-0.25-0.05-0.12-0.01c0.04,0.01,0.08,0.02,0.13,0.03c0.24,0.06-0.21-0.12-0.07-0.03c0.02,0.01,0.05,0.03,0.07,0.04
				c0.12,0.06,0.05,0.13-0.09-0.08c0.02,0.03,0.07,0.06,0.09,0.09c0.12,0.11-0.02,0.1-0.07-0.09c0.01,0.03,0.05,0.09,0.07,0.11
				c0.11,0.15-0.08-0.28-0.04-0.1c0.01,0.04,0.02,0.1,0.04,0.14c0.06,0.16-0.02-0.32-0.01-0.03c0,0.05-0.01,0.13,0,0.18
				c0,0,0.05-0.31,0.01-0.14c-0.05,0.2,0.13-0.25,0.02-0.07c-0.11,0.18,0.19-0.19,0.04-0.04c-0.03,0.03-0.12,0.1-0.13,0.13
				c0.05-0.13,0.19-0.13,0.02-0.02c-0.04,0.02-0.15,0.06-0.17,0.09c0.17-0.07,0.2-0.08,0.09-0.04c-0.04,0.01-0.08,0.03-0.12,0.04
				c-0.18,0.05-0.11-0.05,0.06,0c-0.03-0.01-0.25-0.04-0.03,0.02c0.22,0.05,0.01-0.02-0.02-0.01c0.06,0.02,0.11,0.05,0.17,0.07
				c-0.1-0.06-0.07-0.03,0.09,0.08c-0.15-0.15,0.11,0.23,0.02,0.03c0.02,0.05,0.04,0.1,0.06,0.16c-0.01-0.04-0.02-0.08-0.03-0.12
				c0.01,0.06,0.02,0.12,0.03,0.17c0-0.04,0-0.09,0-0.13c-0.03,0.19-0.03,0.23-0.01,0.1c0.01-0.04,0.02-0.09,0.04-0.13
				c0.06-0.23-0.13,0.21,0,0.01c0.04-0.06,0.07-0.12,0.11-0.18c0.1-0.17-0.03,0.06-0.05,0.06c0.01,0,0.12-0.13,0.14-0.15
				c0.15-0.17-0.22,0.13-0.03,0.02c0.19-0.11-0.02-0.03-0.03-0.01c0.02-0.01,0.05-0.02,0.07-0.02c0.12-0.03,0.09-0.03-0.1,0.01
				c0.12,0,0.08-0.01-0.12-0.03c0.04,0.01,0.08,0.02,0.11,0.03c-0.05-0.02-0.11-0.04-0.16-0.07c0.03,0.02,0.07,0.04,0.1,0.06
				c-0.05-0.03-0.09-0.07-0.14-0.1c0.03,0.03,0.06,0.06,0.08,0.09c-0.03-0.04-0.07-0.09-0.1-0.13c0.02,0.03,0.05,0.07,0.07,0.11
				c0.01,0.02,0.04,0.1,0.06,0.11c-0.02-0.05-0.04-0.1-0.06-0.15c0.02,0.04,0.03,0.08,0.04,0.13c0.02,0.06,0.03,0.13,0.05,0.19
				c0.06,0.23,0-0.27-0.01-0.04c0,0.05,0,0.09,0,0.14c0.03-0.18,0.04-0.22,0.01-0.1c-0.07,0.23,0.13-0.23,0.01-0.03
				c-0.12,0.2,0.18-0.19,0.02-0.03c-0.16,0.16,0.23-0.12,0.03-0.02c-0.03,0.01-0.22,0.13-0.04,0.03c0.16-0.09-0.01-0.01-0.05,0
				c-0.22,0.07,0.27-0.01,0.03-0.01c-0.24,0,0.26,0.09,0.03,0.01c-0.04-0.01-0.09-0.02-0.13-0.04c0.16,0.07,0.19,0.08,0.09,0.03
				c-0.02-0.01-0.03-0.02-0.05-0.03c-0.1-0.06-0.07-0.04,0.09,0.08c0-0.01-0.1-0.1-0.1-0.1c0.11,0.04,0.15,0.22,0.18,0.31
				c-0.05-0.17,0.06-0.02,0.01,0.14c0.01-0.02,0-0.06,0-0.08c0-0.18-0.09,0.3-0.01,0.13c0.01-0.03,0.04-0.1,0.04-0.13
				c-0.09,0.19-0.1,0.24-0.05,0.14c0.02-0.03,0.03-0.06,0.05-0.09c0.03-0.05,0.06-0.09,0.08-0.13c0.06-0.09,0.18-0.16-0.04,0.05
				c0.08-0.08,0.15-0.17,0.23-0.25c0.07-0.07,0.14-0.13,0.21-0.2c0.04-0.04,0.09-0.07,0.13-0.11c0.22-0.18-0.17,0.11-0.01,0.01
				c0.15-0.1,0.31-0.2,0.47-0.29c0.15-0.09-0.3,0.11-0.14,0.06c0.03-0.01,0.06-0.02,0.09-0.03c0.1-0.04,0.19-0.07,0.29-0.11
				c0.1-0.03,0.19-0.07,0.29-0.09c0.05-0.01,0.1-0.02,0.14-0.03c0.19-0.05-0.31,0.02-0.12,0.02c0.12,0,0.19,0.05-0.14-0.03
				c0.01,0,0.02,0.01,0.04,0.01c-0.15-0.04-0.27-0.11-0.38-0.22c-0.1-0.1-0.17-0.24-0.21-0.38c0.03,0.11,0.02,0.05-0.02-0.17
				c0,0.04,0,0.07,0,0.11c0.01-0.06,0.01-0.11,0.02-0.17c-0.01,0.04-0.02,0.08-0.03,0.12c0.02-0.06,0.05-0.11,0.07-0.17
				c-0.02,0.03-0.04,0.07-0.06,0.1c0.03-0.04,0.06-0.09,0.1-0.13c-0.03,0.03-0.06,0.06-0.09,0.09c-0.16,0.17,0.22-0.12,0.01-0.01
				c-0.02,0.01-0.18,0.08-0.18,0.1c0.05-0.02,0.09-0.04,0.14-0.06c-0.04,0.02-0.09,0.03-0.13,0.04c-0.22,0.08,0.27-0.01,0.04-0.01
				c-0.21,0,0.27,0.06,0.06,0c0.05,0.02,0.11,0.04,0.16,0.06c-0.1-0.07-0.07-0.05,0.08,0.06c-0.17-0.14,0.14,0.22,0.04,0.04
				c0.02,0.06,0.05,0.11,0.07,0.17c-0.03-0.12-0.03-0.07,0.01,0.14c-0.01-0.1,0.03-0.27-0.02,0.08c0.02-0.1,0.12-0.23-0.04,0.07
				c0.09-0.18-0.2,0.19-0.04,0.05c-0.05,0.04-0.09,0.07-0.14,0.11c0.03-0.02,0.06-0.04,0.1-0.06c-0.05,0.02-0.11,0.05-0.16,0.07
				c0.12-0.03,0.08-0.02-0.11,0.01c-0.27-0.11-0.53-0.22-0.8-0.33c0.14,0.15-0.14-0.22-0.04-0.06c0.13,0.21-0.04-0.13-0.02-0.06
				c0.07,0.21,0-0.21,0-0.1c0,0.05,0,0.1,0,0.15c-0.01,0.09,0,0.03,0.03-0.17c-0.01,0.03-0.01,0.07-0.02,0.1
				c-0.01,0.04-0.04,0.1-0.04,0.14c0-0.08,0.14-0.26,0.03-0.09c-0.09,0.14-0.09,0.02,0.07-0.07c-0.02,0.01-0.08,0.08-0.09,0.1
				c-0.09,0.13,0.22-0.15,0.09-0.07c-0.16,0.09,0.28-0.1,0.12-0.05c-0.17,0.05,0.31-0.01,0.14-0.02c0.36,0.01,0.24,0.05,0.13,0.01
				c0.2,0.09,0.25,0.11,0.15,0.05c0.05,0.04,0.1,0.08,0.15,0.12c-0.02-0.03-0.21-0.2-0.07-0.06c0.13,0.13-0.04-0.08-0.06-0.13
				c-0.28-0.52-1.04-0.72-1.54-0.4c-0.53,0.34-0.7,0.98-0.4,1.54c0.26,0.49,0.68,0.92,1.23,1.07c0.58,0.16,1.16-0.03,1.6-0.41
				c0.69-0.59,0.96-1.67,0.6-2.5c-0.1-0.24-0.23-0.45-0.41-0.64c-0.36-0.37-0.89-0.41-1.35-0.26c-0.6,0.2-1.08,0.69-1.23,1.31
				c-0.16,0.63,0.03,1.29,0.48,1.76c0.48,0.5,1.2,0.62,1.84,0.46c1.11-0.28,2.07-1.41,1.76-2.59c-0.17-0.65-0.76-1.05-1.41-1.07
				c-0.35-0.01-0.71,0.08-1.05,0.2c-0.67,0.24-1.21,0.54-1.74,1.01c-0.6,0.52-1.17,1.27-1.18,2.1c-0.02,1.16,1.11,1.98,2.21,1.93
				c1.23-0.05,2.28-1.07,2.16-2.34c-0.11-1.13-0.84-2.37-2.12-2.36c-1.15,0.01-2.15,1.01-2.39,2.1c-0.14,0.65-0.02,1.35,0.46,1.84
				c0.39,0.4,0.95,0.6,1.51,0.56c1.14-0.1,2.28-0.94,2.37-2.14c0.06-0.87-0.34-1.75-1.09-2.2c-0.65-0.39-1.47-0.45-2.19-0.25
				c-0.74,0.2-1.45,0.69-1.82,1.37c-0.43,0.79-0.48,1.82,0.09,2.56c0.99,1.28,3.11,0.9,4.13-0.15c0.74-0.76,0.78-1.82,0.55-2.8
				c-0.23-0.97-0.71-2.25-1.75-2.58c-1.09-0.35-2.32,0.29-2.94,1.17c-0.51,0.74-0.62,1.71-0.51,2.58c0.1,0.82,0.2,1.8,0.7,2.49
				c0.44,0.6,1.07,0.85,1.8,0.82c0.52-0.02,1.03-0.04,1.53-0.19c1.01-0.3,2.01-0.93,2.51-1.88c0.45-0.85,0.54-1.87,0.25-2.78
				c-0.28-0.88-0.85-1.65-1.63-2.15c-0.79-0.51-1.76-0.56-2.68-0.53c-0.56,0.02-1.11,0.12-1.6,0.4c-0.52,0.29-0.89,0.77-1.17,1.28
				c-0.53,0.95-0.79,2.03-0.69,3.12c0.05,0.58,0.12,1.19,0.42,1.7c0.29,0.49,0.73,0.81,1.25,1.02c0.7,0.28,1.49,0.22,2.23,0.2
				c1.1-0.04,2.14-0.26,3.05-0.92c0.5-0.36,0.89-0.76,1.06-1.37c0.14-0.52,0.1-1.05,0.01-1.57c-0.15-0.84-0.54-1.75-1.12-2.38
				c-0.77-0.83-1.92-1.02-2.99-0.85c-0.98,0.16-1.95,0.7-2.61,1.43c-0.39,0.44-0.73,0.96-0.85,1.55c-0.13,0.66-0.01,1.28,0.2,1.91
				c0.14,0.45,0.28,0.91,0.62,1.26c0.41,0.42,0.94,0.53,1.49,0.58c0.59,0.05,1.15-0.55,1.12-1.12
				C41.78,40.05,41.32,39.63,40.69,39.57L40.69,39.57z"/>
		</g>
	</g>
	<g>
		<g>
			<path class="st1" d="M40.6,31.07c-0.03-0.96-0.4-1.81-0.54-2.75c-0.14-0.92-0.15-1.88-0.15-2.81c0-1.37,0.06-2.92,1.06-3.97
				c1-1.05-0.59-2.64-1.59-1.59c-1.32,1.39-1.68,3.25-1.71,5.1c-0.02,0.99,0.01,2,0.11,2.98c0.06,0.57,0.14,1.13,0.29,1.68
				c0.12,0.45,0.27,0.89,0.28,1.36C38.4,32.52,40.65,32.52,40.6,31.07L40.6,31.07z"/>
		</g>
	</g>
	<g>
		<g>
			<path class="st1" d="M46.17,32.34c0.71-1.68,1.74-3.2,2.89-4.61c0.56-0.68,1.11-1.37,1.69-2.04c0.28-0.32,0.43-0.46,0.74-0.66
				c0.39-0.26,0.79-0.52,1.1-0.87c0.4-0.46,0.45-1.14,0-1.59c-0.41-0.41-1.19-0.46-1.59,0c-0.25,0.29-0.44,0.38-0.8,0.62
				c-0.39,0.26-0.74,0.56-1.04,0.91c-0.61,0.7-1.2,1.43-1.78,2.15c-1.24,1.52-2.38,3.13-3.15,4.95c-0.24,0.56-0.17,1.2,0.4,1.54
				C45.11,33.02,45.94,32.9,46.17,32.34L46.17,32.34z"/>
		</g>
	</g>
	<g>
		<g>
			<path class="st1" d="M48.33,35.7c0.95,0,1.84-0.28,2.71-0.62c0.44-0.17,0.88-0.3,1.32-0.44c0.5-0.17,0.9-0.44,1.34-0.71
				c0.83-0.5,1.76-0.82,2.63-1.26c0.37-0.19,0.69-0.46,1.01-0.72c0.19-0.15,0.35-0.27,0.54-0.27c1.45-0.01,1.45-2.26,0-2.25
				c-0.99,0.01-1.58,0.54-2.33,1.09c0.1-0.08-0.09,0.06-0.12,0.08c-0.08,0.05-0.16,0.09-0.24,0.13c-0.2,0.1-0.41,0.2-0.62,0.29
				c-0.47,0.21-0.95,0.41-1.41,0.64c-0.41,0.21-0.78,0.47-1.18,0.7c-0.35,0.2-0.78,0.27-1.16,0.41c-0.81,0.29-1.61,0.69-2.49,0.69
				C46.88,33.45,46.88,35.7,48.33,35.7L48.33,35.7z"/>
		</g>
	</g>
</g>
</svg>
