<?xml version="1.0" encoding="utf-8"?>
<!-- Generator: Adobe Illustrator 25.4.1, SVG Export Plug-In . SVG Version: 6.00 Build 0)  -->
<svg version="1.1" id="レイヤー_1" xmlns="http://www.w3.org/2000/svg" xmlns:xlink="http://www.w3.org/1999/xlink" x="0px"
	 y="0px" viewBox="0 0 120 120" style="enable-background:new 0 0 120 120;" xml:space="preserve">
<style type="text/css">
	.st0{fill:#50A46A;}
	.st1{fill:#333333;}
	.st2{fill:#FFFFFF;}
</style>
<!-- <rect class="st0" width="120" height="120"/> -->
<g>
	<g>
		<g>
			<path class="st2" d="M49.17,77.92c-3.06,0-5.89,0.03-8.85-0.85c-2.54-0.76-5.2-1.75-7.34-3.36c-2.12-1.59-3.52-4.37-4.35-6.83
				c-0.85-2.52-1.28-5.16-1.43-7.81c-0.16-2.88-0.08-5.71,0.72-8.5c0.76-2.64,1.97-5.2,3.42-7.54c2.83-4.57,7.24-7.73,12.04-10
				c5.35-2.53,11-3.54,16.87-3.94c4.87-0.33,9.86-0.47,14.64,0.69c5.06,1.23,9.48,4.16,12.69,8.29c0.74,0.96,1.25,2.1,1.8,3.17
				c0.68,1.29,1.34,2.58,1.77,3.99c0.82,2.71,1.27,5.66,1.29,8.48c0.02,3.33-0.91,6.61-2.04,9.73c-0.53,1.46-1.16,2.79-2.2,3.96
				c-1,1.12-2.2,2.43-3.49,3.19c-2.64,1.56-5.52,2.93-8.34,4.12c-1.39,0.59-2.84,0.98-4.21,1.61c-1.36,0.62-2.87,0.89-4.31,1.26
				c-2.53,0.64-1.46,4.54,1.08,3.91c6.01-1.51,11.67-4.17,17.15-7.04c2.68-1.4,5.29-4.04,6.82-6.64c1.56-2.65,2.43-6.01,3.05-9
				c2.54-12.27-3.82-26.39-15.54-31.43c-5.23-2.25-11.01-2.71-16.65-2.52c-6.41,0.21-13.01,0.82-19.02,3.21
				c-5.6,2.23-11,5.31-14.85,10.05c-3.93,4.84-6.65,11.24-6.81,17.51c-0.18,6.89,1.12,14.54,5.87,19.83
				c2.29,2.56,5.86,4.07,9.06,5.13c1.71,0.57,3.43,1.01,5.22,1.24c1.97,0.25,3.97,0.14,5.95,0.15
				C51.78,81.97,51.78,77.92,49.17,77.92L49.17,77.92z"/>
		</g>
	</g>
	<g>
		<g>
			<path class="st2" d="M66.16,79.54c-0.06,3.56-1.39,6.9-3.03,10.01c-0.74,1.41-1.68,2.52-3.05,3.38c-1.32,0.83-2.53,1.68-4.1,1.97
				c0.36,0,0.72,0,1.08,0c0.08,0.04,0.15,0.07,0.23,0.11c0.24,0.24,0.48,0.48,0.73,0.73c0.1,0.63,0.14,0.8,0.14,0.5
				c0.01-0.14,0-0.12-0.02,0.05c0.06-0.14,0.07-0.31,0.12-0.45c0.1-0.26-0.26,0.42,0.11-0.17c0.16-0.25,0.27-0.54,0.37-0.82
				c0.39-1.08,0.68-2.27,0.84-3.41c0.35-2.39,0.35-4.94-0.02-7.33c-0.19-1.26-0.63-2.26-1.24-3.35c-0.07-0.13-0.35-0.94-0.56-1.22
				c-0.47-0.6-1.15-0.95-1.92-0.98c-0.74-0.03-1.19,0.44-1.86,0.56c-0.2,0.04-0.52-0.1-0.78-0.18c-0.46-0.14-0.92-0.29-1.4-0.38
				c-0.24-0.04-0.47-0.07-0.71-0.13c-0.29-0.07-0.7-0.38-0.14,0.07c-0.86-0.68-2.03-0.84-2.86,0c-0.7,0.7-0.86,2.18,0,2.86
				c1.16,0.92,2.35,0.97,3.71,1.37c0.8,0.24,1.57,0.51,2.42,0.46c0.38-0.03,0.72-0.12,1.07-0.26c0.25-0.1,0.5-0.21,0.74-0.32
				c0.37-0.16,0.35-0.16-0.08,0c-0.48-0.2-0.95-0.4-1.43-0.59c0.18,0.14,0.19,0.48,0.3,0.69c0.06,0.11,0.11,0.21,0.17,0.31
				c-0.01-0.01,0.37,0.63,0.26,0.35c0.1,0.24,0.32,1.22,0.39,1.75c0.2,1.51,0.15,3.11,0.06,4.62c-0.07,1.26-0.37,2.79-0.84,3.87
				c-0.49,1.12-1.01,2.22-0.66,3.49c1.03,3.67,5.83,0.58,7.64-0.52c1.28-0.78,2.55-1.76,3.48-2.94c0.89-1.13,1.55-2.46,2.17-3.75
				c1.55-3.23,2.63-6.74,2.7-10.35C70.26,76.93,66.21,76.93,66.16,79.54L66.16,79.54z"/>
		</g>
	</g>
	<g>
		<g>
			<path class="st2" d="M38.34,46.18c0,2.85-0.01,5.7,0,8.55c0.01,2.71-0.28,5.41-0.3,8.13c-0.02,2.14,0.01,4.83,2.48,5.62
				c1.18,0.38,2.38,0.14,3.59,0.19c1.22,0.06,2.14,0.04,3.14-0.77c0.85-0.69,0.72-2.15,0-2.86c-0.84-0.84-2.01-0.69-2.86,0
				c-0.05,0.04-0.09,0.08-0.14,0.11c0.3-0.17,0.6-0.35,0.89-0.52c-0.21,0.08-0.21,0.06-0.59,0.03c-0.39-0.03-0.76-0.05-1.14-0.03
				c-0.46,0.02-1.01-0.05-1.45,0.03c-0.02,0-0.88-0.12,0.09,0.14c0.02,0.01,0.12,0.15,0.12,0.15c-0.05,0.02-0.07-1.85-0.07-2.09
				c0.01-1.07,0.09-2.13,0.14-3.2c0.19-4.49,0.16-8.99,0.16-13.49C42.39,43.58,38.34,43.57,38.34,46.18L38.34,46.18z"/>
		</g>
	</g>
	<g>
		<g>
			<path class="st2" d="M49.48,43.98c0,3.42-0.05,6.84-0.05,10.26c0,3.3-0.05,6.61,0.5,9.87c0.18,1.08,1.51,1.68,2.49,1.41
				c1.14-0.31,1.6-1.41,1.41-2.49c-0.51-3-0.36-6.14-0.36-9.18c0-3.29,0.05-6.58,0.05-9.87C53.53,41.38,49.48,41.37,49.48,43.98
				L49.48,43.98z"/>
		</g>
	</g>
	<g>
		<g>
			<path class="st2" d="M59.28,62.98c0-3.4,0.05-6.76,0.33-10.14c0.14-1.63,0.29-3.25,0.38-4.88c0.04-0.75,0.08-1.5,0.14-2.25
				c0.04-0.42-0.01-1.63,0.21-1.95c-1.17,0-2.33,0-3.5,0c0.03,0.06,0.06,0.11,0.09,0.17c-0.09-0.34-0.18-0.68-0.28-1.02
				c0.52,3.94,1.52,7.76,2.51,11.61c0.48,1.87,0.97,3.75,1.55,5.59c0.53,1.68,0.97,3.92,2.44,5c0.91,0.67,2.22,0.11,2.77-0.73
				c0.42-0.64,0.44-1.35,0.51-2.08c0.07-0.82,0.27-1.63,0.45-2.44c0.36-1.67,0.74-3.34,1.08-5.02c0.72-3.54,0.91-7.06,1.27-10.64
				c0.11-1.09-1.01-2.02-2.03-2.02c-1.19,0-1.91,0.93-2.03,2.02c-0.33,3.22-0.48,6.38-1.13,9.56c-0.32,1.55-0.66,3.1-1,4.65
				c-0.16,0.74-0.33,1.47-0.46,2.22c-0.08,0.49-0.16,0.98-0.2,1.48c-0.02,0.2-0.15,0.5,0.02,0.23c0.92-0.24,1.85-0.48,2.77-0.73
				c-0.06-0.05-0.13-0.09-0.19-0.14c0.24,0.24,0.48,0.48,0.73,0.73c-1.42-3.1-2.12-6.63-2.97-9.92c-0.47-1.8-0.93-3.6-1.34-5.41
				c-0.2-0.9-0.42-1.8-0.56-2.71c-0.14-0.84-0.12-1.68-0.53-2.44c-0.76-1.41-2.69-1.21-3.5,0c-0.49,0.74-0.5,1.68-0.6,2.54
				c-0.11,0.86-0.18,1.72-0.24,2.58c-0.11,1.74-0.23,3.48-0.38,5.21c-0.32,3.65-0.4,7.27-0.4,10.94
				C55.23,65.59,59.28,65.59,59.28,62.98L59.28,62.98z"/>
		</g>
	</g>
	<g>
		<g>
			<path class="st2" d="M79.24,41.75c-1.76-0.01-3.57-0.05-5.3-0.45c-1.58-0.37-3.39-0.26-3.93,1.61c-0.22,0.74,0.04,1.59,0.09,2.23
				c0.06,0.82-0.01,1.66-0.07,2.47c-0.11,1.78-0.2,3.57-0.33,5.35c-0.13,1.83-0.28,3.66-0.4,5.49c-0.1,1.43-0.48,3.22,0.16,4.56
				c0.85,1.76,2.76,1.58,4.42,1.55c1.79-0.03,3.57,0.11,5.36,0.16c2.61,0.06,2.61-3.99,0-4.05c-1.32-0.03-2.63-0.17-3.95-0.18
				c-0.58,0-1.17,0.02-1.75,0.03c-0.35,0-0.7,0.01-1.05,0c-0.12,0-0.23-0.01-0.35-0.01c-0.48-0.04-0.27,0.06,0.62,0.28
				c0.17,0.3,0.35,0.6,0.52,0.89c-0.16-0.43-0.07-1.05-0.03-1.59c0.06-0.8,0.11-1.6,0.17-2.4c0.12-1.64,0.25-3.28,0.36-4.92
				c0.11-1.6,0.19-3.21,0.29-4.81c0.05-0.82,0.11-1.65,0.1-2.47c-0.01-0.42-0.03-0.82-0.1-1.24c-0.02-0.13-0.04-0.27-0.07-0.4
				c-0.08-0.58-0.19-0.34-0.34,0.72c-0.3,0.17-0.6,0.35-0.89,0.52c-0.51-0.06-0.64-0.06-0.38,0c0.1,0.02,0.2,0.05,0.31,0.08
				c0.18,0.04,0.36,0.08,0.54,0.12c0.72,0.14,1.45,0.24,2.18,0.32c1.27,0.15,2.55,0.19,3.83,0.2
				C81.84,45.81,81.85,41.76,79.24,41.75L79.24,41.75z"/>
		</g>
	</g>
	<g>
		<g>
			<path class="st2" d="M71.04,55.08c1.58,0,3.17,0.02,4.75,0c0.84-0.01,1.68-0.17,2.5-0.34c0.35-0.07,0.7-0.14,1.06-0.21
				c0.47-0.09-0.32,0,0.12-0.01c0.22-0.01,0.44-0.02,0.66-0.02c1.06,0.01,2.07-0.94,2.03-2.03c-0.05-1.11-0.89-2.01-2.03-2.02
				c-0.84-0.01-1.68,0.14-2.5,0.31c-0.38,0.08-0.76,0.17-1.14,0.23c-0.08,0.01-0.16,0.03-0.24,0.04c-0.15,0.02-0.11,0.02,0.13-0.02
				c-0.16,0.06-0.41,0.03-0.58,0.03c-1.58,0.01-3.17,0-4.75,0c-1.06,0-2.07,0.93-2.03,2.03C69.06,54.16,69.9,55.08,71.04,55.08
				L71.04,55.08z"/>
		</g>
	</g>
</g>
</svg>
