<?xml version="1.0" encoding="utf-8"?>
<!-- Generator: Adobe Illustrator 25.4.1, SVG Export Plug-In . SVG Version: 6.00 Build 0)  -->
<svg version="1.1" id="レイヤー_1" xmlns="http://www.w3.org/2000/svg" xmlns:xlink="http://www.w3.org/1999/xlink" x="0px"
	 y="0px" viewBox="0 0 90 90" style="enable-background:new 0 0 90 90;" xml:space="preserve">
<style type="text/css">
	.st0{fill:#50A46A;}
	.st1{fill:#333333;}
	.st2{fill:#FFFFFF;}
</style>
<g>
	<g>
		<g>
			<path class="st1" d="M25.94,34.24c-0.83-0.13-1.57-0.21-2.4-0.06c-0.14,0.02-0.16,0.03-0.06,0.01c-0.08,0-0.16,0.01-0.24,0.02
				c-0.17,0.02-0.33,0.05-0.49,0.08c-0.34,0.07-0.69,0.11-1.03,0.16c-0.64,0.09-1.31,0.26-1.9,0.3c-0.34,0.02-0.67,0-1.01,0
				c-0.16,0-0.33,0-0.5,0.02c-0.15-0.01-0.16,0-0.02,0.01c-0.13-0.03-0.09,0,0.13,0.07c0.13,0.13,0.27,0.27,0.4,0.4
				c0.08,0.13,0.07,0.4,0.08,0.14c0-0.11,0-0.22,0.02-0.33c0.01-0.12-0.02,0.06,0.03-0.11c0.06-0.16,0.09-0.36,0.1-0.53
				c0.01-0.1,0-0.21,0-0.31c0-0.09,0-0.08,0,0.03c0.01-0.03,0.02-0.06,0.03-0.09c0.04-0.11,0.05-0.13,0.02-0.06
				c-0.03,0.07-0.02,0.05,0.03-0.06c0.02-0.03,0.04-0.06,0.05-0.09c-0.26,0.21-0.3,0.26-0.09,0.16c-0.19,0.05-0.38,0.1-0.57,0.15
				c-0.13-0.04-0.12-0.03,0.01,0.01c0.08,0.03,0.16,0.04,0.24,0.05c0.18,0.03,0.37,0.05,0.55,0.05c0.37,0.01,0.73-0.04,1.09-0.11
				c0.68-0.13,1.14-0.21,1.84-0.23c0.67-0.01,1.33-0.1,2-0.11c0.12,0,0.24,0.01,0.36,0c0.13,0.01,0.11,0-0.06-0.02
				c-0.19-0.05-0.33-0.16-0.4-0.33c-0.07-0.06-0.1-0.13-0.09-0.21c0.01,0.08,0.01,0.17,0,0.25c0,0.17-0.02,0.33-0.02,0.5
				c-0.01,0.61,0.53,1.12,1.12,1.12c0.62,0,1.11-0.52,1.12-1.12c0.02-0.83,0.06-1.75-0.77-2.23c-0.62-0.36-1.51-0.22-2.19-0.17
				c-0.81,0.06-1.62,0.07-2.42,0.18c-0.31,0.04-0.73,0.13-1.08,0.19c-0.22,0.04-0.55,0.04-0.74-0.01c-1.07-0.29-1.8,0.44-2.14,1.38
				c-0.07,0.19-0.1,0.36-0.12,0.57c-0.01,0.09-0.02,0.16-0.01,0.25c0,0.02-0.02,0.21,0.01,0.07c-0.06,0.39-0.17,0.76-0.16,1.16
				c0,0.43,0.08,0.9,0.4,1.22c0.31,0.31,0.77,0.39,1.2,0.4c0.81,0.02,1.62,0.01,2.42-0.11c0.85-0.12,1.73-0.24,2.58-0.42
				c0.06-0.01,0.13-0.03,0.19-0.05c-0.23,0.05,0.14-0.01,0.17-0.01c0.22-0.02,0.47-0.08,0.66-0.1c0.36-0.04,0.72,0.02,1.08,0.08
				c0.6,0.1,1.21-0.16,1.38-0.79C26.87,35.09,26.54,34.34,25.94,34.24L25.94,34.24z"/>
		</g>
	</g>
	<g>
		<g>
			<path class="st1" d="M23.92,33.13c0.09,0.85,0.38,1.54,0.72,2.32c0.49,1.09,0.73,2.23,1.01,3.39c0.46,1.9,1.03,3.78,1.43,5.69
				c0.83,3.96,1.56,7.95,2.4,11.91c0.22,1.04,0.45,2.07,0.69,3.11c0.18,0.78,0.3,1.64,0.73,2.34c0.8,1.32,2.19,1.24,3.52,1.45
				c1.72,0.27,3.44,0.24,5.18,0.24c1.99,0,3.95-0.03,5.93-0.29c4.44-0.59,8.78-1.03,13.26-1.03c1.45,0,1.45-2.25,0-2.25
				c-4.48,0-8.83,0.41-13.27,1.03c-2.51,0.35-5,0.26-7.52,0.3c-0.99,0.02-1.97-0.03-2.95-0.18c-0.53-0.08-1.88-0.12-2.19-0.43
				c-0.29-0.28-0.32-0.94-0.41-1.3c-0.15-0.64-0.29-1.27-0.43-1.91c-0.27-1.23-0.54-2.47-0.8-3.7c-0.47-2.28-0.78-4.59-1.29-6.86
				c-0.5-2.22-1.08-4.41-1.63-6.62c-0.31-1.25-0.57-2.51-0.9-3.76c-0.3-1.13-1.12-2.3-1.24-3.44C26.02,31.7,23.77,31.69,23.92,33.13
				L23.92,33.13z"/>
		</g>
	</g>
	<g>
		<g>
			<path class="st1" d="M23.14,32.88c-0.43,0.01-0.87,0.08-1.28,0.21c-0.17,0.05-0.34,0.12-0.51,0.18
				c-0.09,0.03-0.18,0.07-0.26,0.11c-0.34,0.1-0.16,0.22,0.55,0.35c0.05,0.19,0.1,0.38,0.15,0.57c-0.01,0.22-0.1,0.37-0.25,0.47
				c0.13-0.07,0.13-0.07,0.01-0.02c0.07-0.03,0.14-0.05,0.22-0.07c-0.19,0.04-0.37-0.02-0.54-0.17c-0.1-0.17-0.19-0.33-0.29-0.5
				c0.07-0.26,0.14-0.51,0.21-0.77c-0.08,0.07-0.08,0.08-0.02,0.03c0.09-0.01-0.06,0.03-0.12,0.07c-0.1,0.06-0.18,0.09-0.25,0.12
				c-0.39,0.14-0.79,0.2-1.18,0.24c-0.39,0.04-0.77,0.06-1.16,0.11c-0.32,0.04-0.4,0.05-0.25,0.03c0.07-0.01,0.07-0.01,0,0
				c-0.08,0.01-0.17,0.01-0.25,0.02c-0.18,0.03-0.01-0.04,0.01,0.02c-0.14-0.04-0.12-0.02,0.05,0.06c0.08,0.03,0.15,0.08,0.21,0.16
				c0,0.38,0,0.76,0,1.14c-0.04,0.06-0.09,0.11-0.14,0.17c0.1-0.05,0.12-0.06,0.05-0.03c-0.05,0.02-0.05,0.02,0.02,0
				c0.07-0.02,0.14-0.04,0.21-0.05c0.17-0.04-0.23,0,0.07-0.01c0.11,0,0.21,0,0.32,0c0.07,0,0.15,0.01,0.22,0.01
				c0.15-0.02-0.17-0.05-0.03,0.01c-0.17-0.1-0.33-0.19-0.5-0.29c0.02,0.03,0.05,0.05,0.07,0.08c-0.1-0.17-0.19-0.33-0.29-0.5
				c0.03-0.17,0.06-0.34,0.08-0.51c0.02-0.05,0.06-0.08,0.1-0.1c0-0.07,0.08-0.02-0.05,0.02c-0.15,0.05,0.27-0.06-0.01,0
				c-0.18,0.04,0.03,0.02,0.04,0.01c-0.03,0-0.06,0-0.08,0c0.21,0.44,0.41,0.88,0.62,1.32c0.04-0.01,0.13-0.11,0.17-0.15
				c-0.02,0.01,0.27-0.22,0.16-0.14c-0.11,0.08,0.28-0.16,0.13-0.09c-0.09,0.04,0.41-0.11,0.27-0.08c0.16-0.04,0.05,0.02,0.06-0.01
				c-0.1-0.07-0.21-0.15-0.31-0.22c0.04-0.29,0.07-0.58,0.11-0.87c-0.02,0.02-0.05,0.04-0.07,0.07c0.08-0.06,0.09-0.07,0.02-0.03
				c-0.06,0.03-0.12,0.07-0.19,0.1c-0.18,0.09,0.24-0.09-0.04,0.02c-0.16,0.06-0.31,0.13-0.46,0.2c-0.07,0.03-0.14,0.07-0.21,0.1
				c0.05-0.02,0.12-0.08-0.06,0.02c-0.04,0.01-0.07,0.02-0.11,0.03c0.03,0,0.05,0,0.08,0c-0.04,0-0.07,0-0.11,0
				c0.16-0.01,0.27,0.04,0.36,0.16c0.09,0.1,0.07,0.11,0.11,0.21c0.05,0.14,0.01-0.22-0.02,0.03c0.01-0.07,0.03-0.13,0.05-0.2
				c0,0,0.09-0.29,0.06-0.23c-0.06,0.13,0.01-0.01,0.03-0.04c0.14-0.17,0.15-0.18,0.22-0.32c0.2-0.39,0.21-0.85,0-1.24
				c-0.25-0.45-0.71-0.69-1.21-0.72c-0.77-0.04-1.67,0.29-2.04,1c-0.27,0.51-0.16,1.02-0.06,1.56c0.08,0.43,0.14,0.84,0.37,1.23
				c0.56,0.96,1.66,1.09,2.66,1.04c0.99-0.05,1.97-0.19,2.96-0.23c1.01-0.04,1.85-0.13,2.73-0.27c1.02-0.17,1.78-1.08,1.37-2.12
				c-0.16-0.4-0.41-0.67-0.63-0.99c-0.3-0.44-0.71-0.76-1.24-0.89c-0.73-0.18-1.48-0.05-2.2,0.11c-0.66,0.15-1.46,0.29-1.84,0.93
				c-0.61,1.04,0.35,1.89,1.27,2.17c0.74,0.22,1.56,0.33,2.33,0.35c0.52,0.01,1.09-0.08,1.43-0.52c0.33-0.42,0.33-0.96,0.08-1.42
				c-0.34-0.62-1.16-0.93-1.82-0.98c-0.99-0.08-1.79,0.76-1.52,1.75c0.29,1.05,1.42,1.52,2.4,1.15c0.47-0.18,0.89-0.48,1.16-0.91
				c0.2-0.32,0.27-0.64,0.3-1.01c0.01-0.07,0.04-0.17,0.02-0.23c0.01-0.08,0-0.04-0.02,0.12c0.09-0.32-0.08-0.17-0.53,0.43
				c-0.2,0-0.4,0-0.6,0c-0.04-0.02-0.09-0.05-0.13-0.07c-0.13-0.13-0.27-0.27-0.4-0.4c-0.04-0.06-0.05-0.51-0.08-0.27
				c-0.01,0.07-0.01,0.16-0.01,0.23c0,0.2,0.03,0.4,0.09,0.59c0.15,0.43,0.42,0.79,0.65,1.18c0.72,1.26,2.67,0.12,1.94-1.14
				c-0.1-0.17-0.21-0.34-0.31-0.5c-0.01-0.02-0.18-0.27-0.17-0.29c-0.01,0.01,0.07,0.2,0.05,0.21c0.04-0.01,0-0.41-0.01-0.45
				c-0.03-0.3-0.1-0.57-0.3-0.81c-0.42-0.5-1.12-0.62-1.69-0.3c-0.49,0.28-0.68,0.84-0.73,1.37c-0.01,0.06-0.04,0.34-0.02,0.22
				c0,0.01,0.09-0.2,0.03-0.07c-0.06,0.05-0.04,0.04,0.05-0.04c-0.03,0.02-0.05,0.03-0.08,0.05c0.01-0.02,0.17-0.07,0.01-0.01
				c0.14-0.01,0.16-0.01,0.08-0.01c-0.07,0-0.06,0,0.02,0.01c0.28,0.1,0.47,0.24,0.47,0.55c0.01,0.79-0.35,0.75-0.75,0.89
				c-0.15,0.05-0.08,0,0.01,0.01c-0.27-0.03-0.11-0.01,0.05,0.03c0.05,0.01,0.16,0.09,0.02,0.01c-0.16-0.1,0.01,0.01,0.04,0.03
				c0.12,0.1-0.07-0.06-0.09-0.08c0.06,0.06,0.05,0.05-0.02-0.04c-0.24-0.27-0.26-0.62-0.06-1.04c0.22-0.17,0.45-0.34,0.67-0.52
				c-0.05,0.03-0.11,0.04-0.17,0.05c0.11-0.02,0.12-0.02,0.03-0.02c-0.11,0-0.23,0-0.34-0.01c-0.22-0.01-0.45-0.03-0.67-0.06
				c-0.25-0.03-0.49-0.1-0.73-0.16c-0.08-0.02-0.16-0.05-0.24-0.07c-0.12-0.04-0.11-0.04,0.02,0.01c-0.35-0.23-0.25,0.07,0.3,0.9
				c-0.1,0.17-0.19,0.33-0.29,0.5c0.07-0.08,0.04-0.06-0.08,0.05c-0.14,0.05-0.15,0.06-0.03,0.01c0.1-0.03,0.19-0.06,0.29-0.08
				c0.18-0.04,0.36-0.08,0.53-0.12c0.09-0.02,0.18-0.04,0.27-0.06c0.07-0.01,0.14-0.03,0.2-0.04c-0.12,0.01-0.11,0.01,0.03,0
				c0.11,0,0.23,0,0.33-0.01c0.14,0.01,0.15,0.01,0.02-0.01c0.07,0.01,0.13,0.03,0.2,0.05c-0.01,0.03-0.24-0.16-0.2-0.17
				c0.02-0.01,0.22,0.36,0.25,0.39c0.07,0.1,0.26,0.35,0.27,0.35c-0.11-0.42-0.02-0.74,0.25-0.95c0.04-0.02,0.07-0.03,0.11-0.05
				c-0.06,0.02-0.12,0.03-0.18,0.04c0.15-0.02,0.16-0.02,0.03,0c-0.08,0.01-0.16,0.02-0.23,0.03c-0.39,0.05-0.78,0.1-1.17,0.13
				c-0.75,0.06-1.51,0.04-2.26,0.12c-0.72,0.08-1.42,0.19-2.14,0.17c-0.08,0-0.16,0-0.24-0.01c0.05-0.01,0.09,0,0.12,0.04
				c-0.08,0.1-0.09-0.21-0.03-0.01c0.04,0.14-0.04-0.21-0.05-0.25c-0.03-0.13-0.04-0.27-0.07-0.4c-0.01-0.06-0.03-0.12-0.04-0.17
				c-0.02-0.08-0.02-0.08-0.01,0c-0.42,0.47-0.52,0.63-0.29,0.49c-0.15,0.06-0.17,0.06-0.04,0.02c0.09-0.02,0.18-0.05,0.27-0.07
				c-0.15,0.02-0.16,0.02-0.04,0.02c-0.26-0.01-0.48-0.14-0.65-0.39c-0.05-0.19-0.1-0.38-0.15-0.57c0,0.04,0,0.07,0,0.11
				c0.05-0.19,0.1-0.38,0.15-0.57c0.06-0.13,0.01,0-0.01,0.05c-0.06,0.11-0.17,0.2-0.24,0.32c-0.11,0.2-0.18,0.43-0.25,0.64
				c-0.14,0.43-0.2,0.89-0.1,1.34c0.21,0.89,1.03,1.5,1.94,1.41c0.45-0.04,0.82-0.21,1.23-0.39c0.07-0.03,0.13-0.06,0.2-0.09
				c-0.19,0.09-0.04,0.02,0,0c0.22-0.09,0.44-0.17,0.64-0.3c0.82-0.51,1.19-1.47,0.64-2.32c-0.57-0.89-1.73-0.92-2.63-0.57
				c-0.73,0.28-1.67,0.97-1.78,1.79c-0.15,1.13,0.9,1.76,1.91,1.57c0.74-0.14,1.44-0.65,1.64-1.39c0.19-0.69-0.19-1.47-0.88-1.68
				c-0.29-0.09-0.62-0.1-0.93-0.1c-0.92-0.01-1.79,0.31-2.34,1.05c-0.24,0.31-0.18,0.82,0,1.14c0.37,0.64,1.06,0.92,1.78,0.88
				c0.2-0.01,0.4-0.05,0.6-0.07c-0.29,0.04,0.05,0,0.1-0.01c0.33-0.03,0.66-0.05,0.99-0.09c1.17-0.13,3.23-0.45,3.43-1.93
				c0.13-1.01-0.8-1.65-1.73-1.53c-0.72,0.1-1.5,0.5-1.79,1.21c-0.4,1,0.41,2.01,1.45,1.99c0.71-0.01,1.33-0.52,2.05-0.55
				c0.61-0.02,1.12-0.5,1.12-1.12C24.27,33.41,23.75,32.86,23.14,32.88L23.14,32.88z"/>
		</g>
	</g>
	<g>
		<g>
			<path class="st1" d="M27.66,40.07c1.76,0.01,3.61-0.37,5.35-0.6c1.98-0.26,3.9-0.41,5.88-0.54c2.15-0.13,4.28-0.5,6.43-0.64
				c2.11-0.14,4.2-0.3,6.3-0.5c2-0.19,4.02-0.16,6.02-0.25c0.38-0.02,2.44-0.14,2.56,0.03c0.09,0.13-0.03,0.91-0.03,1.04
				c0,0.5-0.02,1,0.01,1.49c0.13,2.02,0.1,4.04,0.12,6.07c0.01,1.09,0.03,2.18,0.01,3.27c-0.01,0.48-0.06,0.93-0.11,1.4
				c-0.04,0.19-0.05,0.38-0.03,0.58c-0.01,0.27,0,0.31,0.04,0.11c0.27-0.11,0.53-0.22,0.8-0.33c-0.5,0.05-1.01-0.1-1.51-0.08
				c-0.62,0.02-1.23,0.16-1.85,0.27c-1.29,0.24-2.58,0.46-3.86,0.69c-2.45,0.43-5.03,0.65-7.51,0.76c-2.58,0.11-5.19,0.19-7.77,0.24
				c-2.59,0.05-5.16,0.25-7.74,0.23c-1.45-0.01-1.45,2.24,0,2.25c2.82,0.02,5.63-0.16,8.45-0.25c3.03-0.09,6.1-0.08,9.11-0.37
				c2.72-0.26,5.39-0.6,8.08-1.06c1.43-0.24,2.73-0.49,4.18-0.42c1.09,0.05,1.67-0.59,1.83-1.61c0.4-2.68,0.14-5.51,0.14-8.22
				c0-1.4-0.08-2.78-0.12-4.17c-0.02-1,0.31-2.42-0.32-3.31c-0.61-0.87-1.58-0.86-2.53-0.85c-1.52,0.01-3.04,0.11-4.56,0.11
				c-2.92,0-5.82,0.39-8.74,0.57c-3.21,0.2-6.42,0.54-9.62,0.78c-1.69,0.12-3.37,0.48-5.06,0.62c-1.31,0.11-2.61,0.45-3.92,0.44
				C26.21,37.81,26.21,40.06,27.66,40.07L27.66,40.07z"/>
		</g>
	</g>
	<g>
		<g>
			<path class="st1" d="M30.93,38.84c-0.02,1.21,0.18,2.46,0.33,3.66c0.17,1.34,0.19,2.69,0.36,4.02c0.17,1.37,0.36,2.76,0.47,4.14
				c0.09,1.12-0.02,2.23,0.21,3.33c0.22,1.04,1.54,0.99,2.06,0.27c0.03-0.05,0.07-0.09,0.1-0.14c0.36-0.5,0.08-1.25-0.4-1.54
				c-0.56-0.34-1.18-0.09-1.54,0.4c-0.03,0.05-0.07,0.09-0.1,0.14c0.69,0.09,1.37,0.18,2.06,0.27c-0.23-1.06-0.07-2.2-0.18-3.3
				c-0.14-1.31-0.27-2.63-0.46-3.94c-0.17-1.22-0.16-2.47-0.32-3.69c-0.15-1.19-0.35-2.43-0.33-3.62
				C33.2,37.39,30.95,37.39,30.93,38.84L30.93,38.84z"/>
		</g>
	</g>
	<g>
		<g>
			<path class="st1" d="M35.57,38.62c0,2.6,0.29,5.13,0.58,7.71c0.27,2.45,0.31,4.92,0.49,7.37c0.11,1.43,2.25,1.47,2.25,0
				c0-0.08,0-0.16,0-0.25c0-1.45-2.25-1.45-2.25,0c0,0.08,0,0.16,0,0.25c0.75,0,1.5,0,2.25,0c-0.19-2.45-0.22-4.91-0.49-7.37
				c-0.29-2.58-0.57-5.11-0.58-7.71C37.81,37.17,35.56,37.17,35.57,38.62L35.57,38.62z"/>
		</g>
	</g>
	<g>
		<g>
			<path class="st1" d="M40.44,37.85c0,2.73,0.36,5.51,0.66,8.22c0.14,1.32,0.12,2.7,0.18,4.03c0.05,1.22,0.2,2.44,0.24,3.65
				c0.05,1.44,2.25,1.45,2.25,0c0-0.06,0-0.13,0-0.19c0-1.45-2.25-1.45-2.25,0c0,0.06,0,0.13,0,0.19c0.75,0,1.5,0,2.25,0
				c-0.04-1.22-0.18-2.43-0.24-3.65c-0.06-1.34-0.03-2.71-0.18-4.03c-0.3-2.71-0.66-5.49-0.66-8.22
				C42.69,36.4,40.44,36.4,40.44,37.85L40.44,37.85z"/>
		</g>
	</g>
	<g>
		<g>
			<path class="st1" d="M45.43,37.52c0,1.31,0.22,2.59,0.34,3.89c0.14,1.46,0.14,2.93,0.27,4.39c0.07,0.73,0.1,1.45,0.21,2.18
				c0.11,0.7,0.08,1.37,0.15,2.06c0.06,0.66,0.12,1.27,0.1,1.94c-0.02,0.69-0.02,1.35,0.17,2.02c0.35,1.18,2.27,1.01,2.21-0.3
				c0-0.05,0-0.09-0.01-0.14c-0.07-1.44-2.32-1.45-2.25,0c0,0.05,0,0.09,0.01,0.14c0.74-0.1,1.47-0.2,2.21-0.3
				c-0.17-0.59-0.1-1.21-0.09-1.81c0.02-0.68-0.1-1.31-0.13-1.99c-0.06-1.37-0.23-2.73-0.36-4.1c-0.13-1.36-0.12-2.72-0.24-4.08
				c-0.12-1.3-0.34-2.58-0.34-3.89C47.68,36.07,45.43,36.07,45.43,37.52L45.43,37.52z"/>
		</g>
	</g>
	<g>
		<g>
			<path class="st1" d="M50.3,37.08c0.04,2.68,0.24,5.34,0.24,8.02c0,2.61-0.17,5.29,0.28,7.88c0.25,1.42,2.42,0.82,2.17-0.6
				c-0.43-2.46-0.2-5.09-0.2-7.58c0-2.58-0.2-5.14-0.24-7.72C52.53,35.64,50.28,35.63,50.3,37.08L50.3,37.08z"/>
		</g>
	</g>
	<g>
		<g>
			<path class="st1" d="M55.18,37.3c0,5.13,0.35,10.25,0.36,15.38c0,1.45,2.25,1.45,2.25,0c0-5.13-0.36-10.25-0.36-15.38
				C57.43,35.85,55.18,35.85,55.18,37.3L55.18,37.3z"/>
		</g>
	</g>
	<g>
		<g>
			<path class="st1" d="M36.39,37.85c-0.04-1.77-0.3-3.55-0.54-5.31c-0.12-0.86-0.34-1.7-0.54-2.55c-0.11-0.45-0.22-0.9-0.34-1.35
				c-0.07-0.22-0.13-0.44-0.17-0.66c-0.03-0.21-0.05-0.22-0.06-0.05c-0.17,0.22-0.34,0.45-0.52,0.67c-0.42,0.18,0.29,0.13,0.45,0.14
				c0.39,0.03,0.79,0.01,1.19,0.01c0.72,0,1.43,0.01,2.15-0.01c1.62-0.03,3.25-0.13,4.87-0.18c1.55-0.05,3.11-0.05,4.66-0.04
				c0.77,0,1.55,0.01,2.32,0.01c0.36,0,0.72,0,1.07,0c0.21,0,0.43,0,0.64-0.01c0.36,0.04,0.42,0.03,0.19-0.05
				c-0.17-0.22-0.34-0.45-0.52-0.67c0.09-0.51,0.06-0.56-0.07-0.15c-0.08,0.2-0.15,0.4-0.21,0.6c-0.11,0.4-0.16,0.82-0.2,1.23
				c-0.07,0.74-0.02,1.49,0,2.23c0.04,1.61-0.07,3.2-0.11,4.8c-0.04,1.45,2.21,1.45,2.25,0c0.03-1.34,0.12-2.66,0.12-4.01
				c0-1.3-0.24-2.72,0.2-3.97c0.17-0.48,0.38-0.82,0.19-1.34c-0.23-0.62-0.78-0.88-1.41-0.92c-1.42-0.09-2.87-0.01-4.29-0.01
				c-3.06-0.01-6.11,0.13-9.17,0.21c-1.41,0.04-2.85,0.09-4.25-0.03c-1.22-0.1-2,0.64-1.74,1.87c0.32,1.51,0.86,2.98,1.07,4.51
				c0.23,1.65,0.47,3.34,0.5,5.01C34.17,39.3,36.42,39.3,36.39,37.85L36.39,37.85z"/>
		</g>
	</g>
	<g>
		<g>
			<path class="st1" d="M42.69,27.42c0.02-0.59-0.28-1.09-0.62-1.55c-0.37-0.5-0.69-1.05-1.03-1.58c-0.36-0.57-0.7-1.16-1.01-1.75
				c-0.11-0.21-0.22-0.41-0.32-0.62c-0.03-0.05-0.13-0.19-0.04-0.09c-0.11-0.14,0.01-0.05-0.05,0.13c-0.1,0.17-0.19,0.33-0.29,0.5
				c0.01-0.02,0.03-0.03,0.04-0.05c-0.27,0.11-0.53,0.22-0.8,0.33c0.37-0.05,0.73-0.02,1.11-0.11c0.36-0.09,0.71-0.24,1.07-0.36
				c0.31-0.11,0.62-0.19,0.93-0.27c0.08-0.02,0.22-0.02,0.28-0.07c0.08-0.02,0.08-0.02-0.01,0c-0.07-0.02-0.13-0.04-0.2-0.06
				c-0.13-0.13-0.27-0.27-0.4-0.4c-0.08-0.11,0.03-0.59-0.09-0.24c-0.05,0.15-0.06,0.32-0.08,0.47c-0.03,0.26-0.03,0.51-0.01,0.77
				c0.06,0.6,0.19,1.18,0.35,1.76c0.14,0.52,0.28,1.03,0.4,1.55c0.05,0.19,0.05,0.31,0.06,0.48c0.02,0.43,0.17,0.7,0.43,1.02
				c0.51,0.63,1.75,0.3,1.88-0.5c0.07-0.4,0.02-0.85,0.19-1.22c0.17-0.38,0.43-0.73,0.61-1.1c0.2-0.4,0.37-0.82,0.59-1.21
				c0.08-0.15,0.17-0.29,0.26-0.43c-0.01,0.01,0.22-0.32,0.12-0.24c-0.38,0-0.76,0-1.14,0c0.29,0.22,0.53,0.51,0.82,0.73
				c0.33,0.26,0.69,0.49,1.05,0.73c0.31,0.21,0.63,0.42,0.93,0.65c0.07,0.06,0.15,0.11,0.22,0.17c0.07,0.05,0.13,0.11,0.19,0.17
				c0.15,0.16,0.13,0.12-0.04-0.13c0-0.2,0-0.4,0-0.6c0.36-0.36,0.42-0.47,0.19-0.32c0.08-0.03,0.06-0.02-0.06,0.02
				c-0.14,0.06-0.29,0.11-0.43,0.17c-0.42,0.17-0.83,0.37-1.25,0.53c-0.41,0.16-0.83,0.28-1.22,0.49c-0.17,0.09-0.32,0.2-0.47,0.3
				c-0.09,0.06-0.18,0.12-0.27,0.18c0.05-0.01,0.09-0.02,0.14-0.02c-0.6-0.12-1.21,0.17-1.38,0.79c-0.15,0.55,0.19,1.27,0.79,1.38
				c0.67,0.13,1.23,0.04,1.79-0.34c0.41-0.28,0.77-0.44,1.23-0.61c0.54-0.21,1.06-0.46,1.59-0.66c0.47-0.18,0.94-0.35,1.27-0.77
				c0.87-1.12-0.31-2.08-1.14-2.7c-0.46-0.34-0.93-0.65-1.4-0.97c-0.5-0.34-0.91-0.78-1.4-1.15c-0.28-0.21-0.85-0.21-1.14,0
				c-0.83,0.63-1.25,1.59-1.69,2.51c-0.21,0.44-0.48,0.84-0.7,1.28c-0.3,0.6-0.31,1.12-0.41,1.76c0.63-0.17,1.25-0.33,1.88-0.5
				c-0.03-0.03-0.06-0.07-0.08-0.1c0.1,0.17,0.19,0.33,0.29,0.5c0.05,0.07,0.07,0.04,0.04-0.1c-0.02-0.16-0.04-0.31-0.07-0.47
				c-0.03-0.17-0.08-0.34-0.13-0.51c-0.11-0.43-0.22-0.86-0.34-1.29c-0.11-0.42-0.24-0.85-0.3-1.29c-0.04-0.34,0.02-0.59,0.08-0.93
				c0.18-1.02-0.51-1.84-1.55-1.83c-0.76,0.01-1.56,0.34-2.26,0.58c-0.39,0.14-0.63,0.19-1.03,0.21c-0.58,0.03-1.07,0.34-1.23,0.93
				c-0.19,0.67,0.17,1.34,0.46,1.92c0.43,0.84,0.9,1.66,1.42,2.44c0.23,0.36,0.45,0.72,0.69,1.08c0.1,0.14,0.2,0.27,0.3,0.41
				c0.06,0.09,0.13,0.35,0.13,0.17C40.39,28.86,42.64,28.86,42.69,27.42L42.69,27.42z"/>
		</g>
	</g>
	<g>
		<g>
			<path class="st1" d="M40.8,27.53c0.01,0.81,0.23,1.63,0.34,2.44c0.1,0.74,0.26,1.47,0.35,2.21c0.06,0.44-0.02,0.87,0.07,1.3
				c0.06,0.31,0.11,0.58,0.12,0.9c0.02,0.83-0.04,1.65-0.05,2.47c0.75,0,1.5,0,2.25,0c0-0.14,0-0.29,0-0.43c0-1.45-2.25-1.45-2.25,0
				c0,0.14,0,0.29,0,0.43c0,1.45,2.24,1.45,2.25,0c0-0.82,0.07-1.65,0.05-2.47c-0.01-0.43-0.06-0.83-0.14-1.25
				c-0.05-0.3-0.02-0.63-0.05-0.95c-0.08-0.83-0.27-1.64-0.39-2.47c-0.1-0.71-0.3-1.46-0.31-2.18
				C43.03,26.08,40.78,26.08,40.8,27.53L40.8,27.53z"/>
		</g>
	</g>
	<g>
		<g>
			<path class="st1" d="M43.05,27.86c-0.01,0.88,0.04,1.76,0.14,2.64c0.1,0.85,0.11,1.72,0.17,2.58c0.03,0.41,0.11,0.82,0.14,1.24
				c0.02,0.21,0,0.42,0.02,0.63c0.02,0.25,0.1,0.47,0.13,0.71c-0.02-0.19-0.02,0.18-0.03,0.22c-0.01,0.15-0.04,0.29-0.04,0.44
				c0,0.47,0.15,0.87,0.47,1.22c0.58,0.65,1.65,0.27,1.88-0.5c0.06-0.2,0.09-0.39,0.07-0.6c-0.06-0.6-0.47-1.12-1.12-1.12
				c-0.56,0-1.19,0.52-1.12,1.12c0,0,0.01,0,0.01,0.01c0.63-0.17,1.25-0.33,1.88-0.5c0.11,0.11,0.17,0.23,0.19,0.37
				c0-0.07,0-0.14,0.01-0.22c0.01-0.12,0.03-0.25,0.04-0.37c0.01-0.32-0.1-0.65-0.13-0.93c-0.07-0.72-0.14-1.45-0.18-2.18
				c-0.09-1.58-0.3-3.16-0.29-4.75C45.32,26.41,43.07,26.41,43.05,27.86L43.05,27.86z"/>
		</g>
	</g>
	<g>
		<g>
			<path class="st1" d="M34.43,63.2c-0.95-0.01-2.05-0.18-2.79,0.58c-0.5,0.52-0.7,1.34-0.81,2.03c-0.14,0.97-0.05,1.98,0.57,2.78
				c0.61,0.79,1.6,1.33,2.62,1.24c0.49-0.04,0.95-0.2,1.42-0.31c0.4-0.09,0.84-0.2,1.17-0.44c0.79-0.58,1.1-1.53,1.07-2.48
				c-0.03-1.01-0.32-1.96-1.15-2.6c-0.44-0.34-0.94-0.42-1.48-0.45c-0.08,0-0.16-0.01-0.24-0.02c-0.15-0.01,0.23,0.05,0.08,0.01
				c-0.05-0.01-0.1-0.02-0.15-0.03c-0.21-0.04-0.41-0.1-0.62-0.13c-0.62-0.1-1.21-0.12-1.8,0.16c-0.41,0.19-0.74,0.54-0.96,0.93
				c-0.44,0.8-0.61,1.78-0.68,2.68c-0.03,0.5-0.07,1.04,0.13,1.5c0.23,0.54,0.65,0.88,1.19,1.1c0.37,0.15,0.77,0.19,1.17,0.21
				c0.43,0.02,0.86,0.04,1.29,0.01c0.49-0.03,0.94-0.12,1.38-0.33c0.45-0.22,0.73-0.62,0.9-1.08c0.24-0.66,0.18-1.52,0-2.18
				c-0.19-0.71-0.62-1.48-1.17-1.97c-0.8-0.7-1.91-1.03-2.9-0.51c-0.82,0.44-1.38,1.39-1.5,2.29c-0.12,0.91,0.15,1.88,0.85,2.52
				c0.38,0.35,0.82,0.61,1.31,0.79c0.52,0.19,1.1,0.12,1.61-0.08c0.82-0.32,1.67-0.73,2.17-1.47c0.25-0.37,0.38-0.87,0.32-1.31
				c-0.04-0.31-0.1-0.57-0.33-0.8c-0.2-0.2-0.52-0.34-0.8-0.33c-0.55,0.02-1.2,0.5-1.12,1.12c0.01,0.07,0.01,0.13,0.01,0.2
				c0.02,0.22,0.06-0.27,0.01-0.06c-0.06,0.21,0.14-0.23,0.03-0.06c-0.01,0.02-0.02,0.03-0.03,0.05c-0.06,0.09-0.04,0.07,0.07-0.09
				c-0.04,0.03-0.08,0.09-0.12,0.13c-0.1,0.09-0.18,0.08,0.04-0.02c-0.13,0.06-0.25,0.16-0.37,0.23c-0.11,0.06-0.22,0.11-0.34,0.17
				c-0.06,0.03-0.13,0.06-0.19,0.09c-0.18,0.09,0.02,0,0.05-0.02c-0.06,0.04-0.17,0.06-0.23,0.08c-0.03,0.01-0.05,0.01-0.08,0.02
				c-0.13,0.03-0.11,0.03,0.06,0c-0.03,0-0.05,0-0.08,0c-0.13-0.01-0.1,0,0.09,0.02c-0.05-0.01-0.09-0.02-0.14-0.04
				c-0.11-0.04-0.09-0.03,0.06,0.03c-0.03,0.02-0.34-0.2-0.38-0.22c-0.02-0.01-0.04-0.03-0.06-0.04c-0.09-0.07-0.07-0.05,0.07,0.06
				c-0.01-0.03-0.13-0.12-0.15-0.14c-0.17-0.15,0.13,0.22,0.01,0.02c-0.03-0.05-0.07-0.11-0.1-0.17c-0.12-0.19,0.07,0.25,0.01,0.04
				c-0.02-0.06-0.04-0.12-0.05-0.18c0-0.02-0.01-0.04-0.01-0.06c-0.02-0.12-0.02-0.08,0.01,0.11c0.01-0.05-0.01-0.14-0.01-0.19
				c0-0.06,0.02-0.13,0.01-0.19c0.02,0.27-0.03,0.18,0,0.05c0.02-0.06,0.04-0.12,0.06-0.19c0.06-0.22-0.13,0.23-0.01,0.03
				c0.03-0.05,0.06-0.11,0.09-0.17c0.02-0.04,0.05-0.07,0.07-0.11c0.07-0.1,0.05-0.07-0.06,0.07c0.04-0.01,0.11-0.12,0.14-0.15
				c0.02-0.02,0.03-0.03,0.05-0.05c0.09-0.08,0.07-0.06-0.07,0.05c0.02,0,0.12-0.07,0.14-0.09c0.12-0.08-0.27,0.09-0.06,0.03
				c0.23-0.06-0.28,0.02-0.04,0.01c0.23-0.01-0.25-0.07-0.03,0c0.06,0.02,0.13,0.04,0.19,0.06c0.11,0.04,0.08,0.03-0.09-0.04
				c0.04,0.02,0.08,0.04,0.11,0.06c0.05,0.03,0.11,0.09,0.16,0.1c-0.04-0.03-0.09-0.07-0.13-0.1c0.03,0.03,0.06,0.05,0.09,0.08
				c0.05,0.04,0.09,0.09,0.13,0.13c0.08,0.09,0.09,0.2-0.02-0.03c0.05,0.11,0.15,0.21,0.21,0.32c0.06,0.11,0.1,0.24,0.17,0.34
				c-0.16-0.23-0.06-0.15-0.02-0.04c0.02,0.04,0.03,0.09,0.05,0.13c0.03,0.09,0.05,0.18,0.07,0.27c0.01,0.05,0.02,0.11,0.03,0.16
				c-0.08-0.35-0.02-0.17-0.01-0.07c0.01,0.14,0.02,0.28,0.01,0.41c0,0.06-0.01,0.12-0.01,0.17c-0.01-0.3,0.03-0.2,0.01-0.08
				c-0.03,0.11-0.16,0.37,0.01,0.02c-0.05,0.1-0.15,0.16,0.07-0.08c-0.13,0.14,0.26-0.16,0.09-0.06c-0.18,0.1,0.27-0.09,0.06-0.02
				c-0.08,0.02-0.16,0.05-0.24,0.07c-0.06,0.01-0.11,0.02-0.17,0.04c0.35-0.1,0.18-0.02,0.05-0.02c-0.17,0.01-0.33,0.01-0.5,0.01
				c-0.32,0-0.65-0.01-0.98-0.03c-0.12-0.01-0.23-0.08,0.04,0.01c-0.06-0.02-0.13-0.02-0.19-0.04c-0.06-0.01-0.12-0.03-0.18-0.05
				c-0.21-0.06,0.23,0.14,0.06,0.02c-0.08-0.06-0.19-0.17,0.05,0.05c-0.15-0.14,0.15,0.24,0.04,0.06c-0.11-0.18,0.08,0.27,0.03,0.06
				c0.08,0.36,0.02,0.05,0.02-0.06c0-0.16,0-0.32,0.01-0.47c0.01-0.14-0.01-0.33,0.04-0.46c-0.01,0.04-0.01,0.09-0.02,0.13
				c0.01-0.06,0.02-0.11,0.03-0.17c0.01-0.08,0.03-0.17,0.05-0.25c0.04-0.2,0.09-0.4,0.15-0.59c0.03-0.11,0.09-0.22,0.12-0.34
				c-0.06,0.28-0.07,0.15-0.02,0.05c0.03-0.05,0.06-0.1,0.09-0.16c0.1-0.19-0.19,0.18-0.03,0.04c0.01-0.01,0.07-0.06,0.09-0.08
				c-0.04,0.03-0.09,0.07-0.13,0.1c0.03-0.02,0.07-0.04,0.11-0.06c-0.17,0.07-0.2,0.08-0.09,0.04c0.12-0.03,0.09-0.02-0.08,0
				c0-0.01,0.21-0.01,0.23-0.01c0.03,0,0.05,0,0.08,0c0.13,0.01,0.11,0.01-0.06-0.01c0.12-0.03,0.35,0.07,0.47,0.09
				c0.38,0.09,0.76,0.14,1.15,0.16c0.05,0,0.14,0.02,0.19,0.01c-0.03,0.01-0.28-0.07-0.12-0.01c0.09,0.03,0.24,0.11-0.03-0.03
				c0.2,0.11-0.16-0.19,0.01,0c0.03,0.03,0.16,0.13,0.16,0.17c-0.03-0.04-0.06-0.07-0.09-0.11c0.03,0.04,0.05,0.08,0.07,0.12
				c0.01,0.02,0.02,0.04,0.03,0.06c0.05,0.11,0.04,0.08-0.03-0.08c-0.01,0.03,0.07,0.23,0.08,0.26c0,0.02,0.01,0.05,0.01,0.07
				c0.02,0.12,0.02,0.09-0.01-0.09c-0.01,0.06,0.01,0.15,0.02,0.21c0.01,0.13,0.01,0.27,0.01,0.41c0,0.05,0,0.09-0.01,0.14
				c0,0.12-0.07,0.16,0.02-0.09c-0.02,0.06-0.02,0.12-0.04,0.18c-0.02,0.07-0.07,0.17-0.07,0.24c0.02-0.05,0.04-0.1,0.06-0.15
				c-0.02,0.04-0.04,0.07-0.06,0.11c-0.01,0.02-0.02,0.04-0.03,0.05c-0.07,0.1-0.04,0.07,0.07-0.08c-0.01,0.01-0.03,0.03-0.04,0.04
				c-0.09,0.08-0.05,0.06,0.09-0.06c-0.03,0.01-0.14,0.07-0.16,0.09c0.05-0.02,0.1-0.04,0.15-0.06c-0.04,0.02-0.09,0.03-0.13,0.04
				c-0.07,0.02-0.14,0.04-0.21,0.06c-0.16,0.04-0.32,0.07-0.48,0.11c-0.17,0.04-0.33,0.09-0.49,0.13c-0.08,0.02-0.16,0.04-0.24,0.06
				c-0.13,0.02-0.1,0.02,0.07-0.01c-0.05,0-0.1,0-0.15,0c-0.02,0-0.05,0-0.07,0c-0.12-0.01-0.1-0.01,0.08,0.01
				c0-0.02-0.29-0.05-0.28-0.08c0.04,0.02,0.09,0.04,0.13,0.06c-0.04-0.02-0.09-0.04-0.13-0.07c-0.04-0.02-0.09-0.05-0.13-0.08
				c-0.1-0.07-0.08-0.05,0.05,0.04c-0.05-0.01-0.13-0.11-0.17-0.15c-0.03-0.03-0.07-0.07-0.1-0.1c-0.08-0.09-0.06-0.07,0.05,0.06
				c0-0.01-0.1-0.16-0.11-0.18c-0.01-0.02-0.02-0.04-0.03-0.06c-0.05-0.11-0.04-0.08,0.03,0.08c0.01-0.03-0.05-0.16-0.06-0.19
				c-0.01-0.04-0.02-0.09-0.03-0.13c-0.02-0.12-0.02-0.09,0.01,0.1c0.02-0.15-0.02-0.33-0.02-0.48c0-0.06,0.03-0.15,0.02-0.21
				c-0.03,0.19-0.03,0.22-0.01,0.1c0.01-0.04,0.02-0.09,0.02-0.13c0.03-0.14,0.07-0.28,0.11-0.42c0.03-0.11,0.05-0.22,0.09-0.32
				c0.02-0.05,0.03-0.1,0.05-0.15c0.06-0.18-0.13,0.29,0,0.03c0.09-0.18-0.2,0.2-0.05,0.07c0.08-0.08,0.04-0.05-0.11,0.08
				c0.03-0.02,0.06-0.04,0.09-0.06c-0.05,0.02-0.11,0.05-0.16,0.07c0.04-0.01,0.08-0.03,0.12-0.03c0.12-0.02,0.09-0.02-0.08,0.01
				c0.05,0,0.11-0.01,0.16-0.01c0.39-0.02,0.78,0.02,1.17,0.02c0.59,0,1.15-0.52,1.12-1.12C35.53,63.71,35.06,63.2,34.43,63.2
				L34.43,63.2z"/>
		</g>
	</g>
	<g>
		<g>
			<path class="st1" d="M59.03,66.6c-0.03,0-0.17-0.01-0.02,0c0.16,0.01-0.01-0.01-0.06-0.02c-0.08-0.02-0.17-0.04-0.25-0.07
				c-0.21-0.06-0.41-0.14-0.62-0.21c-0.16-0.06-0.32-0.11-0.48-0.16c-0.07-0.02-0.15-0.07-0.22-0.08c0.01,0,0.21,0.11,0.12,0.05
				c-0.03-0.02-0.07-0.04-0.11-0.06c-0.22-0.11,0.14,0.13,0.01,0.01c-0.13-0.12,0.16,0.22,0.01-0.01c-0.06-0.09,0.05,0.08,0.04,0.09
				c0,0-0.03-0.11-0.03-0.12c-0.01-0.04-0.05-0.21-0.01-0.05c0.04,0.16,0.01-0.01,0-0.05c-0.01-0.38,0.01-0.76,0.03-1.14
				c0-0.13-0.01,0.1-0.02,0.1c0.01-0.03,0.01-0.08,0.02-0.12c0.02-0.09,0.04-0.19,0.06-0.28c0.02-0.09,0.06-0.18,0.08-0.27
				c0.02-0.1-0.06,0.14-0.06,0.14c0.02-0.03,0.03-0.07,0.05-0.1c0.03-0.06,0.07-0.11,0.1-0.16c0.05-0.09-0.1,0.12-0.09,0.12
				c0.02-0.01,0.05-0.06,0.07-0.08c0.03-0.04,0.09-0.07,0.12-0.11c-0.01,0.01-0.24,0.17-0.1,0.08c0.03-0.02,0.06-0.04,0.09-0.06
				c0.05-0.03,0.11-0.06,0.17-0.09c0.09-0.06-0.15,0.06-0.15,0.06c0.03-0.01,0.05-0.02,0.08-0.03c0.06-0.02,0.12-0.04,0.18-0.06
				c0.03-0.01,0.05-0.01,0.08-0.02c0.18-0.05-0.05,0.01-0.11,0.01c0.12,0,0.24-0.01,0.36-0.01c0.23,0.01-0.22-0.05-0.05-0.01
				c0.06,0.02,0.13,0.03,0.19,0.05c0.03,0.01,0.07,0.03,0.1,0.04c0.1,0.02-0.15-0.06-0.14-0.06c0.05,0.04,0.12,0.06,0.17,0.09
				c0.04,0.02,0.2,0.14,0.05,0.02c-0.16-0.13,0.04,0.05,0.08,0.08c0.02,0.02,0.04,0.04,0.06,0.07c0.15,0.16-0.03-0.02-0.03-0.04
				c-0.01,0.03,0.1,0.16,0.12,0.19c0.02,0.03,0.04,0.11,0.07,0.13c0,0-0.08-0.22-0.04-0.1c0.03,0.09,0.06,0.18,0.09,0.27
				c0.09,0.32,0.15,0.66,0.2,0.99c0.03,0.21-0.01-0.04-0.01-0.06c-0.01,0.03,0.01,0.09,0.01,0.12c0.01,0.1,0.02,0.19,0.02,0.29
				c0,0.08,0,0.16,0,0.24c0,0.05-0.01,0.11-0.01,0.16c-0.01,0.17-0.02-0.04,0.01-0.07c-0.03,0.04-0.05,0.19-0.06,0.24
				c-0.03,0.11,0.05-0.11,0.05-0.12c-0.02,0.02-0.03,0.06-0.05,0.09c-0.02,0.04-0.05,0.07-0.07,0.11c-0.05,0.1,0.07-0.09,0.08-0.1
				c-0.07,0.05-0.13,0.13-0.18,0.19c-0.14,0.13,0.18-0.1,0.01-0.02c-0.05,0.03-0.27,0.13-0.1,0.07c0.18-0.07-0.09,0.03-0.12,0.04
				c-0.03,0.01-0.07,0.01-0.1,0.02c-0.12,0.04,0.22-0.01,0.08-0.01c-0.02,0-0.27-0.01-0.28,0c0.01-0.01,0.22,0.04,0.1,0.01
				c-0.05-0.01-0.11-0.02-0.16-0.03c-0.18-0.05-0.35-0.12-0.53-0.18c-0.37-0.12-0.74-0.22-1.11-0.35c-0.12-0.04,0.08,0.03,0.08,0.03
				c0-0.01-0.1-0.05-0.11-0.05c-0.07-0.03-0.13-0.07-0.19-0.11c-0.02-0.02-0.05-0.03-0.07-0.05c-0.12-0.07,0.19,0.17,0.09,0.07
				c-0.05-0.05-0.1-0.09-0.14-0.13c-0.04-0.04-0.18-0.21-0.05-0.05c0.13,0.17-0.01-0.02-0.03-0.06c-0.03-0.04-0.05-0.09-0.08-0.14
				c-0.04-0.08-0.03-0.16,0.05,0.13c-0.01-0.03-0.02-0.06-0.04-0.1c-0.02-0.06-0.04-0.12-0.05-0.17c-0.01-0.05-0.04-0.24-0.01-0.03
				c0.03,0.23,0,0,0-0.06c0-0.07,0-0.14,0-0.21c0-0.02-0.01-0.14,0.01-0.16c0.01-0.01-0.06,0.32-0.02,0.14
				c0.01-0.03,0.01-0.05,0.02-0.08c0.01-0.06,0.03-0.12,0.05-0.18c0.02-0.05,0.1-0.26,0.02-0.06c-0.09,0.2,0.01-0.01,0.03-0.06
				c0.03-0.05,0.06-0.11,0.09-0.16c0.03-0.04,0.14-0.2,0.02-0.04c-0.13,0.16,0.03-0.03,0.07-0.07c0.04-0.05,0.09-0.09,0.14-0.13
				c0.02-0.02,0.04-0.03,0.06-0.05c0.07-0.08-0.12,0.09-0.12,0.09c0.12-0.05,0.25-0.15,0.37-0.21c0.1-0.06-0.14,0.06-0.13,0.06
				c0.03-0.01,0.06-0.02,0.09-0.03c0.09-0.03,0.18-0.06,0.26-0.08c0.08-0.02,0.16-0.04,0.24-0.06c0.05-0.01,0.11-0.02,0.16-0.04
				c0.17-0.04-0.03-0.02-0.06,0c0.08-0.06,0.39-0.03,0.49-0.03c0.17-0.01,0.34-0.01,0.52-0.01c0.2,0.01-0.21-0.06-0.06,0
				c0.02,0.01,0.08,0.03,0.1,0.03c-0.01,0-0.21-0.12-0.14-0.05c0.05,0.04,0.13,0.07,0.19,0.11c0.03,0.02,0.05,0.04,0.08,0.05
				c0.08,0.06,0.11,0.15-0.04-0.03c0.09,0.11,0.22,0.2,0.32,0.3c0.02,0.02,0.04,0.05,0.07,0.07c0.07,0.08,0.03,0.11-0.06-0.08
				c0.03,0.06,0.08,0.12,0.11,0.17c0.13,0.19-0.08-0.26-0.01-0.04c0.02,0.07,0.04,0.15,0.07,0.22c0.06,0.19-0.02-0.04,0-0.07
				c-0.01,0.02,0,0.1,0,0.11c0.02,0.11,0.02-0.09,0.02-0.11c-0.06,0.22,0.1-0.12,0.02-0.02c-0.01,0.02-0.06,0.08-0.06,0.1
				c0-0.03,0.18-0.2,0.05-0.07c-0.05,0.05-0.1,0.1-0.15,0.14c-0.06,0.05-0.15,0.09,0.06-0.04c-0.03,0.02-0.06,0.04-0.09,0.06
				c-0.07,0.05-0.14,0.1-0.22,0.14c-0.08,0.05-0.38,0.26-0.47,0.24c-0.01,0,0.22-0.08,0.1-0.04c-0.03,0.01-0.07,0.03-0.1,0.04
				c-0.09,0.03-0.18,0.06-0.27,0.09c-0.11,0.03-0.23,0.06-0.35,0.09c-0.05,0.01-0.11,0.01-0.16,0.03c-0.02,0,0.28-0.03,0.15-0.02
				c-0.05,0-0.1,0.01-0.15,0.01c-0.13,0.01-0.26-0.01-0.39,0c-0.11,0.01,0.16,0.03,0.16,0.02c-0.02-0.01-0.07-0.02-0.1-0.02
				c-0.04-0.01-0.15-0.06,0.05,0.03c0.1,0.05,0.12,0.06,0.08,0.03c-0.08-0.05-0.03-0.01,0.15,0.12c-0.01-0.02-0.05-0.05-0.06-0.07
				c-0.08-0.08,0.08,0.1,0.08,0.1c0-0.03-0.08-0.16-0.11-0.19c-0.06-0.08,0.05,0.11,0.05,0.12c0-0.02-0.03-0.07-0.03-0.09
				c-0.02-0.08-0.04-0.17-0.06-0.25c-0.03-0.12,0.02,0.14,0.02,0.14c0.01-0.04-0.01-0.09-0.01-0.13c0-0.07,0-0.13,0-0.2
				c0-0.19-0.05,0.26,0,0.01c0.02-0.08,0.06-0.17,0.07-0.25c0.01-0.1-0.05,0.11-0.06,0.12c0.02-0.03,0.04-0.08,0.05-0.11
				c0.02-0.04,0.09-0.11,0.1-0.16c0,0.01-0.16,0.16-0.08,0.11c0.03-0.02,0.06-0.05,0.08-0.08c0.06-0.08-0.1,0.09-0.11,0.09
				c0.02,0,0.08-0.05,0.1-0.06c0.14-0.09-0.07,0.03-0.1,0.04c0.03,0,0.06-0.02,0.09-0.03c0.07-0.02,0.14-0.04,0.22-0.06
				c0.03-0.01,0.07-0.01,0.1-0.02c0.12-0.03-0.14,0.02-0.13,0.02c0.09,0,0.18-0.02,0.26-0.02c0.14,0,0.27,0.01,0.41,0.02
				c0.14,0.01-0.26-0.06-0.13-0.01c0.11,0.04-0.15-0.07-0.13-0.06c0.03,0.02,0.12,0.08-0.01-0.02c-0.15-0.12-0.01,0.01,0.03,0.04
				c0.14,0.13-0.12-0.18-0.01-0.02c0.04,0.06,0.08,0.12,0.13,0.18c0.1,0.15,0.2,0.29,0.3,0.43c0.1,0.15,0.19,0.3,0.27,0.46
				c0.06,0.11-0.04-0.08-0.04-0.08c0,0,0.03,0.11,0.04,0.12c0.03,0.1,0.05,0.21,0.07,0.32c0.01,0.04,0.01,0.08,0.02,0.12
				c0.04,0.23-0.02-0.03,0-0.05C58.95,66.32,59,66.52,59,66.56c0.02,0.21,0,0.42,0,0.63c0,0.14,0.02-0.11,0.02-0.12
				c-0.01,0.05-0.06,0.12,0.02-0.02c0.02-0.03,0.21-0.27,0.12-0.19c-0.09,0.08,0.13-0.09,0.11-0.08c-0.03,0.02-0.14,0.08,0.02,0
				c0.22-0.11-0.15,0.02,0.1-0.03c0.15-0.03,0.07-0.02,0.01-0.02c0.04,0,0.25,0.04,0.1,0c0.08,0.02,0.25,0.09,0.3,0.17
				c-0.01-0.02-0.04-0.04-0.06-0.06c-0.02-0.02-0.04-0.04-0.06-0.06c-0.12-0.12,0.06,0.08,0.07,0.09c-0.12-0.17-0.25-0.34-0.4-0.49
				c-0.42-0.42-1.18-0.45-1.59,0c-0.41,0.45-0.44,1.14,0,1.59c0.03,0.03,0.05,0.06,0.08,0.08c0.15,0.15-0.14-0.19-0.05-0.07
				c0.09,0.12,0.18,0.25,0.28,0.36c0.22,0.25,0.51,0.45,0.83,0.55c0.64,0.2,1.39,0.03,1.86-0.46c0.48-0.5,0.53-1.21,0.49-1.87
				c-0.05-0.62-0.15-1.22-0.41-1.79c-0.18-0.39-0.45-0.74-0.7-1.09c-0.15-0.21-0.3-0.42-0.5-0.59c-0.34-0.29-0.68-0.41-1.12-0.46
				c-0.9-0.11-2.05,0.09-2.65,0.83c-0.67,0.81-0.88,1.99-0.5,2.98c0.23,0.6,0.61,1.15,1.25,1.35c0.39,0.13,0.82,0.12,1.23,0.07
				c1-0.12,1.95-0.49,2.73-1.13c0.51-0.42,0.85-0.99,0.88-1.65c0.03-0.52-0.15-1.13-0.44-1.56c-0.6-0.87-1.5-1.55-2.59-1.57
				c-0.95-0.01-2.03,0.13-2.84,0.66c-1.45,0.94-2.09,3-1.12,4.51c0.26,0.41,0.6,0.74,1.01,1c0.45,0.28,0.98,0.43,1.48,0.58
				c0.54,0.15,1.03,0.36,1.59,0.39c0.55,0.03,1.16-0.14,1.63-0.43c1.02-0.64,1.42-1.74,1.31-2.91c-0.1-1.09-0.31-2.2-1.02-3.07
				c-1.24-1.51-3.76-1.23-4.78,0.36c-0.25,0.4-0.38,0.88-0.45,1.34c-0.08,0.55-0.11,1.12-0.07,1.68c0.05,0.63,0.24,1.26,0.74,1.68
				c0.44,0.38,0.97,0.52,1.5,0.71c0.54,0.19,1.04,0.35,1.62,0.4c0.59,0.05,1.15-0.55,1.12-1.12C60.13,67.08,59.66,66.66,59.03,66.6
				L59.03,66.6z"/>
		</g>
	</g>
</g>
</svg>
