<?xml version="1.0" encoding="utf-8"?>
<!-- Generator: Adobe Illustrator 25.4.1, SVG Export Plug-In . SVG Version: 6.00 Build 0)  -->
<svg version="1.1" id="レイヤー_1" xmlns="http://www.w3.org/2000/svg" xmlns:xlink="http://www.w3.org/1999/xlink" x="0px"
	 y="0px" viewBox="0 0 90 90" style="enable-background:new 0 0 90 90;" xml:space="preserve">
<style type="text/css">
	.st0{fill:#50A46A;}
	.st1{fill:#333333;}
	.st2{fill:#FFFFFF;}
</style>
<g>
	<g>
		<g>
			<path class="st1" d="M45.3,41.94c-1.9,0-3.8,0.09-5.51-0.88c-1.52-0.86-2.76-2.28-3.34-3.92c-0.28-0.79-0.41-1.58-0.46-2.42
				c-0.07-1.05-0.22-2.1,0.04-3.14c0.47-1.84,1.65-3.14,3.07-4.33c2.61-2.19,7.03-2.78,10.11-1.29c3.14,1.51,5.07,5.62,4.08,9
				c-0.27,0.92-0.94,1.66-1.4,2.49c-0.48,0.86-0.91,1.77-1.65,2.43c-1.33,1.18-3.25,1.82-4.97,2.18c-1.42,0.3-0.82,2.47,0.6,2.17
				c1.97-0.41,4.06-1.18,5.63-2.47c0.84-0.69,1.37-1.49,1.92-2.42c0.57-0.97,1.27-1.91,1.73-2.93c1.87-4.08-0.25-9.33-3.77-11.77
				c-3.49-2.43-9.07-2.25-12.6,0.07c-1.82,1.19-3.61,2.92-4.46,4.95c-0.88,2.11-0.81,4.48-0.41,6.7c0.44,2.4,1.8,4.48,3.72,5.95
				c2.29,1.76,4.9,1.88,7.67,1.88C46.75,44.2,46.75,41.95,45.3,41.94L45.3,41.94z"/>
		</g>
	</g>
	<g>
		<g>
			<path class="st1" d="M29.94,66.25c-1.24-0.09-1.11-3.48-1.12-4.31c-0.04-1.65,0.08-3.18,0.38-4.81c0.27-1.48,0.5-3,0.94-4.43
				c0.46-1.47,0.87-3.11,2.3-3.87c2.77-1.48,5.87-1.63,8.94-1.81c3.38-0.2,6.77-0.23,10.15-0.11c1.54,0.06,3.11,0.21,4.62,0.51
				c1.59,0.32,2.35,1.45,3.04,2.84c1.45,2.92,1.7,6.41,1.69,9.61c0,1.47,0,2.95,0,4.42c0,0.4,0.12,0.99-0.03,1.32
				c-0.34,0.75-1.2,0.67-1.93,0.7c-3.14,0.15-6.29-0.22-9.43-0.23c-1.86-0.01-3.73,0.1-5.59-0.01c-1.74-0.1-3.48-0.3-5.23-0.25
				C35.75,65.91,32.85,66.28,29.94,66.25c-1.45-0.02-1.45,2.23,0,2.25c3.15,0.03,6.29-0.44,9.44-0.43c1.97,0.01,3.93,0.29,5.9,0.3
				c2.04,0.01,4.07-0.08,6.11,0.01c1.87,0.08,3.74,0.22,5.61,0.21c1.55-0.01,3.55,0.22,4.89-0.71c1.09-0.76,1.24-1.92,1.24-3.14
				c0-1.92,0.03-3.85,0-5.77c-0.05-3.62-0.61-7.43-2.43-10.61c-0.73-1.28-1.74-2.45-3.19-2.92c-1.62-0.52-3.57-0.65-5.26-0.75
				c-4.18-0.24-8.4-0.08-12.58,0.19c-1.92,0.13-3.77,0.28-5.61,0.89c-1.36,0.45-2.95,0.93-4,1.96c-1.28,1.25-1.95,3.57-2.34,5.26
				c-0.45,1.94-0.87,3.95-1.1,5.93c-0.24,2.06-0.16,4.41,0.25,6.44c0.36,1.77,1.16,3,3.07,3.14C31.38,68.61,31.38,66.36,29.94,66.25
				z"/>
		</g>
	</g>
	<g>
		<g>
			<path class="st1" d="M42.35,33.15c1.45,0,1.45-2.25,0-2.25C40.9,30.9,40.9,33.15,42.35,33.15L42.35,33.15z"/>
		</g>
	</g>
	<g>
		<g>
			<path class="st1" d="M42.35,33.22c1.45,0,1.45-2.25,0-2.25C40.9,30.97,40.9,33.22,42.35,33.22L42.35,33.22z"/>
		</g>
	</g>
	<g>
		<g>
			<path class="st1" d="M46.06,31.62c0-0.08-0.01-0.16,0-0.24c-0.01,0.1-0.03,0.2-0.04,0.3c0-0.02,0.01-0.05,0.02-0.07
				c-0.04,0.09-0.08,0.18-0.11,0.27c0.01-0.01,0.01-0.02,0.02-0.03c-0.06,0.08-0.12,0.15-0.18,0.23c0.01-0.01,0.01-0.01,0.02-0.02
				c-0.08,0.06-0.15,0.12-0.23,0.18c0.01-0.01,0.02-0.01,0.02-0.01c-0.09,0.04-0.18,0.08-0.27,0.11c0.01,0,0.02-0.01,0.03-0.01
				c-0.1,0.01-0.2,0.03-0.3,0.04c0.01,0,0.03,0,0.04,0c-0.1-0.01-0.2-0.03-0.3-0.04c0.01,0,0.01,0,0.02,0.01
				c-0.09-0.04-0.18-0.08-0.27-0.11c0.01,0,0.01,0.01,0.02,0.01c-0.08-0.06-0.15-0.12-0.23-0.18c0.01,0.01,0.01,0.01,0.02,0.02
				c-0.06-0.08-0.12-0.15-0.18-0.23c0.01,0.01,0.01,0.02,0.01,0.02c-0.04-0.09-0.08-0.18-0.11-0.27c0.01,0.01,0.01,0.03,0.01,0.04
				c-0.01-0.1-0.03-0.2-0.04-0.3c0,0.02,0,0.05,0,0.07c0.01-0.1,0.03-0.2,0.04-0.3c0,0.03-0.01,0.05-0.02,0.07
				c0.04-0.09,0.08-0.18,0.11-0.27c-0.01,0.02-0.02,0.03-0.03,0.05c0.06-0.08,0.12-0.15,0.18-0.23c-0.01,0.01-0.01,0.02-0.02,0.02
				c0.08-0.06,0.15-0.12,0.23-0.18c0,0-0.01,0-0.01,0.01c-0.13,0.07-0.24,0.17-0.32,0.29c-0.1,0.11-0.17,0.24-0.2,0.38
				c-0.05,0.15-0.05,0.3-0.02,0.45c0.01,0.15,0.05,0.29,0.13,0.42c0.06,0.08,0.12,0.15,0.18,0.23c0.14,0.14,0.31,0.24,0.5,0.29
				c0.1,0.01,0.2,0.03,0.3,0.04c0.2,0,0.39-0.05,0.57-0.15c0.09-0.06,0.18-0.12,0.26-0.2c0.03-0.04,0.08-0.1,0.09-0.12
				c0.02-0.03,0.06-0.08,0.09-0.12c0-0.01,0.01-0.01,0.01-0.02c0.03-0.05,0.05-0.11,0.07-0.15c0.02-0.04,0.05-0.1,0.07-0.16
				c0.01-0.02,0.01-0.03,0.01-0.05c0.01-0.06,0.03-0.24,0.04-0.3c0,0,0-0.01,0-0.01c0,0,0-0.01,0-0.01c0-0.01,0-0.02,0-0.03
				c0-0.01,0-0.01,0-0.02c-0.01-0.05-0.02-0.13-0.02-0.15c0-0.01-0.01-0.1-0.02-0.15c0,0,0-0.01,0-0.01c0-0.01,0-0.01-0.01-0.02
				c0,0,0,0,0,0c-0.01-0.02-0.1-0.25-0.11-0.27c0,0,0-0.01-0.01-0.01c0,0,0-0.01-0.01-0.01c0,0,0,0,0,0
				c-0.01-0.01-0.17-0.22-0.18-0.23c0-0.01-0.01-0.01-0.02-0.01c-0.01-0.01-0.22-0.17-0.23-0.18c0,0,0,0,0,0c0,0-0.01,0-0.01,0
				c-0.09-0.05-0.19-0.09-0.29-0.12c0,0-0.01,0-0.01,0c-0.02,0-0.28-0.04-0.3-0.04c0,0,0,0-0.01,0c-0.01,0-0.02,0-0.03,0
				c0,0,0,0-0.01,0c-0.05,0.01-0.25,0.03-0.3,0.04c0,0-0.01,0-0.01,0c0,0-0.01,0-0.01,0c0,0,0,0,0,0c-0.04,0.01-0.24,0.1-0.27,0.12
				c-0.01,0-0.01,0.01-0.02,0.01c0,0,0,0,0,0c-0.01,0.01-0.22,0.17-0.23,0.18c0,0-0.01,0.01-0.01,0.01c0,0,0,0-0.01,0.01
				c0,0,0,0,0,0c-0.01,0.02-0.16,0.21-0.18,0.23c0,0.01-0.01,0.01-0.01,0.02c0,0,0,0.01,0,0.01c0,0,0,0,0,0.01
				c-0.02,0.04-0.1,0.23-0.11,0.27c0,0.01-0.01,0.01-0.01,0.02c-0.02,0.06-0.02,0.14-0.03,0.2c-0.01,0.06-0.02,0.13-0.02,0.2
				c0,0.07,0.01,0.13,0.01,0.2c-0.01,0.15,0.03,0.3,0.1,0.43c0.05,0.14,0.12,0.26,0.23,0.36c0.1,0.11,0.22,0.19,0.36,0.23
				c0.13,0.07,0.28,0.1,0.43,0.1c0.1-0.01,0.2-0.03,0.3-0.04c0.19-0.05,0.36-0.15,0.5-0.29c0.06-0.08,0.12-0.15,0.18-0.23
				C46.01,32.02,46.06,31.83,46.06,31.62L46.06,31.62z"/>
		</g>
	</g>
</g>
</svg>
