<?xml version="1.0" encoding="iso-8859-1"?>
<!-- Generator: Adobe Illustrator 16.0.0, SVG Export Plug-In . SVG Version: 6.00 Build 0)  -->
<!DOCTYPE svg PUBLIC "-//W3C//DTD SVG 1.1//EN" "http://www.w3.org/Graphics/SVG/1.1/DTD/svg11.dtd">
<svg version="1.1" id="&#x5716;&#x5C64;_1" xmlns="http://www.w3.org/2000/svg" xmlns:xlink="http://www.w3.org/1999/xlink" x="0px"
	 y="0px" width="524px" height="105px" viewBox="0 0 524 105" style="enable-background:new 0 0 524 105;" xml:space="preserve">
<g>
	<g>
		<path d="M163.915,35.186c-0.521,2.254-1.174,4.098-1.953,5.529c-0.781,1.518-1.735,2.887-2.863,4.098l-0.195-0.195
			c-2.516-2.385-4.313-5.529-5.398-9.432H163.915z M122.476,33.037c-2.125,2.951-4.725,5.857-7.803,8.719l4.099,4.096
			c1.472-1.516,2.817-2.947,4.03-4.291v17.236h5.334V34.859c1.476-2.08,3.012-4.51,4.618-7.285c0.998-0.348,1.496-0.867,1.496-1.563
			c0-0.303-0.282-0.561-0.847-0.779l-5.008-2.275C126.444,26.99,124.471,30.35,122.476,33.037z M132.492,55.48h5.337V35.705
			c0.652-0.693,0.975-1.213,0.975-1.561c0-0.391-0.456-0.605-1.366-0.65l-4.945-0.393V55.48z M146.283,33.102
			c-1.647,2.518-3.878,4.992-6.696,7.418l4.551,3.057c1.864-1.777,3.555-3.75,5.072-5.918c1.258,3.99,2.994,7.199,5.205,9.625
			l0.716,0.848c-1.257,0.777-2.646,1.475-4.163,2.08c-2.041,0.955-5.075,1.953-9.107,2.994l4.621,4.811
			c4.16-1.559,7.545-3.055,10.146-4.484c0.908-0.523,1.779-1.086,2.602-1.693c3.122,2.473,7.068,4.881,11.837,7.221l4.359-4.553
			c-4.988-2.125-9.042-4.229-12.165-6.311c1.434-1.648,2.623-3.49,3.582-5.529c0.953-1.908,1.688-4.4,2.21-7.48h4.356v-5.074h-19.97
			c0.521-1.172,0.976-2.361,1.365-3.578c1.216-0.303,1.823-0.563,1.823-0.781c0-0.344-0.24-0.625-0.717-0.844l-4.878-1.691
			C149.558,27.381,147.977,30.674,146.283,33.102z M115.191,77.076l5.335,3.318c2.6-3.773,4.965-8.523,7.087-14.246
			c0.696-0.346,1.044-0.76,1.044-1.236c0-0.303-0.371-0.584-1.105-0.844l-4.75-2.213C120.677,67.709,118.14,72.783,115.191,77.076z
			 M131.712,72.004c0,2.904,0.609,5.137,1.824,6.699c1.432,1.648,3.447,2.471,6.051,2.471h16.518c2.084,0,3.84-0.564,5.271-1.691
			c1.646-1.215,3.035-3.967,4.164-8.26l-5.596-2.539c-0.782,3.256-1.756,5.207-2.926,5.855c-1.128,0.695-2.799,1.041-5.01,1.041
			h-9.889c-1.865,0-3.102-0.367-3.708-1.105c-0.562-0.91-0.845-2.232-0.845-3.969v-4.619c0-0.996,0.305-1.732,0.914-2.211
			c0.734-0.65,1.105-1.258,1.105-1.82c0-0.564-0.414-0.889-1.239-0.975l-6.636-0.781V72.004z M143.683,63.352
			c2.776,2.602,5.314,5.66,7.613,9.172l4.809-3.318c-2.816-3.6-5.699-6.568-8.65-8.91L143.683,63.352z M160.921,63.092
			c4.031,4.162,7.675,9.086,10.927,14.764l5.073-3.316c-3.902-5.984-7.871-10.883-11.903-14.701L160.921,63.092z"/>
		<path d="M186.068,23.971c3.511,1.994,6.481,4.098,8.911,6.309l-3.578,3.838c-2.773-2.34-5.832-4.465-9.17-6.375L186.068,23.971z
			 M184.507,35.68c3.642,1.82,6.699,3.75,9.173,5.789l-3.579,3.838c-2.861-2.168-5.986-4.119-9.365-5.855L184.507,35.68z
			 M181.254,51.16h12.426v19.059c1.213,2.299,3.187,3.883,5.919,4.75c2.904,0.91,7.373,1.363,13.4,1.363
			c10.102,0,19.34-0.26,27.709-0.779l-2.016,6.311h-25.693c-5.25,0-9.478-0.367-12.686-1.105c-3.338-0.781-5.983-2.125-7.937-4.033
			c-0.78-0.693-1.474-1.518-2.08-2.473l-5.009,5.594c-0.303,0.693-0.629,1.043-0.976,1.043c-0.478,0-0.826-0.283-1.04-0.848
			l-3.316-4.488c3.205-1.863,5.914-3.75,8.127-5.658v-13.66h-6.829V51.16z M203.565,22.41l5.012,0.391
			c0.908,0.043,1.363,0.258,1.363,0.648c0,0.348-0.344,0.848-1.041,1.496v5.855h6.895v5.074h-10.146
			c0,2.383-0.023,4.596-0.066,6.633h9.434c0,12.707-0.283,20.707-0.848,24.004c-0.346,3.211-1.105,5.422-2.273,6.635
			c-1.217,1.258-3.297,1.887-6.246,1.887l-2.277-5.074c2.775,0,4.426-0.346,4.943-1.041c0.521-0.607,0.91-1.973,1.172-4.098
			c0.432-2.211,0.672-8.043,0.719-17.498h-4.752c-0.131,3.34-0.326,6.092-0.584,8.262c-0.436,3.771-0.934,6.721-1.498,8.846
			c-0.867,3.078-1.887,5.68-3.057,7.805l-4.879-2.795c1.563-2.428,2.713-4.924,3.447-7.48c0.738-2.516,1.279-5.463,1.627-8.848
			c0.348-3.078,0.52-8.822,0.52-17.236h-5.594v-5.074h8.131V22.41z M223.927,22.67l4.684,1.627c0.605,0.172,0.908,0.391,0.908,0.648
			c0,0.219-0.172,0.477-0.52,0.781c-0.389,0.174-1.127,1.52-2.211,4.033l-0.713,1.561h13.072v4.813h-15.609
			c-1,1.693-2.061,3.32-3.191,4.879l-5.07-2.795C218.827,33.922,221.714,28.74,223.927,22.67z M235.892,41.012
			c0.438,0,0.848,0.131,1.238,0.391l2.537,1.691c0.348,0.219,0.521,0.457,0.521,0.717c0,0.389-0.434,0.803-1.301,1.234l-7.092,8.326
			v3.385h8.135v4.813h-8.135v8.912c0,1.865-0.975,2.949-2.926,3.25c-1.475,0.176-4.314,0.262-8.523,0.262l-2.016-5.334h6.375
			c1.348,0,2.018-0.584,2.018-1.756v-5.334h-9.693v-4.813h9.693v-6.375l1.887,0.389l3.512-4.684h-12.293v-4.877h14.766
			L235.892,41.012z"/>
		<path d="M269.635,22.643l5.396,0.457c1,0.088,1.498,0.369,1.498,0.844c0,0.348-0.346,0.846-1.041,1.498v6.113h20.816v5.336
			h-20.816v7.869h28.945v5.594h-28.945v2.408c8.932,4.727,16.479,9.691,22.637,14.895l-4.096,4.293
			c-5.77-4.553-11.949-8.76-18.541-12.619v23.287h-5.854V50.354h-23.616V44.76h23.616V22.643z"/>
		<g>
			<path d="M337.367,43.908h-11.455v9.361h11.213v4.586h-11.213v11.02h13.555v4.586h-20.428V39.324h18.328V43.908z"/>
			<path d="M349.871,62.201c1.34-3.736,2.678-7.189,3.857-11.58h0.082c1.336,4.391,2.559,7.844,3.781,11.58H349.871z
				 M352.061,45.014l-11.578,28.447h4.957l2.924-7.766h10.08l2.641,7.766h6.418l-10.686-28.447H352.061z"/>
			<path d="M383.432,49.971c-1.258-0.85-2.924-1.623-4.59-1.623c-2.398,0-3.701,1.34-3.701,3.006c0,1.867,1.99,3.293,5.324,5.934
				c3.82,3.045,5.85,5.443,5.85,8.939c0,3.574-3.41,7.717-9.834,7.717c-2.963,0-6.256-0.893-8.365-2.842l2.07-3.25
				c1.502,1.096,3.252,2.275,5.811,2.275c2.361,0,4.43-1.262,4.43-3.939c0-3.131-3.818-5.201-6.098-6.992
				c-2.76-2.234-5.076-3.979-5.076-7.76c0-3.82,3.857-6.912,9.021-6.912c3.252,0,5.85,1.184,7.193,2.484L383.432,49.971z"/>
			<path d="M394.889,73.461V61.555l-8.734-16.135l6.42-0.811c1.994,4.104,3.943,8.209,5.932,13.121
				c2.197-4.912,4.432-9.018,6.625-13.121l4.713,0.811l-9.223,16.135v11.906H394.889z"/>
			<path d="M437.096,45.52c-1.66-0.879-4.441-1.902-7.072-1.902c-7.025,0-12.092,4.926-12.092,12.676
				c0,8.096,5.605,12.877,12.285,12.877c2.633,0,5.072-0.732,6.879-1.709l1.898,4.238c-2.098,1.223-5.754,2.346-9.066,2.346
				c-11.852,0-19.313-7.803-19.313-17.848c0-9.316,7.414-17.459,19.408-17.459c3.559,0,6.873,1.27,9.215,2.633L437.096,45.52z"/>
			<path d="M448.615,62.201c1.344-3.736,2.684-7.189,3.861-11.58h0.084c1.338,4.391,2.555,7.844,3.777,11.58H448.615z
				 M450.811,45.014l-11.586,28.447h4.963l2.924-7.766h10.076l2.645,7.766h6.42l-10.686-28.447H450.811z"/>
			<path d="M474.582,48.834h2.967c2.271,0,4.551,1.094,4.551,4.307c0,2.076-1.266,5.119-5.203,5.119h-2.314V48.834z M468.852,73.461
				h5.73V62.084h3.412l5.773,11.859l6.008-1.096l-6.742-12.152c2.684-1.578,4.793-4.02,4.793-8.246c0-4.834-3.656-7.436-9.1-7.436
				h-9.875V73.461z"/>
			<path d="M498.594,48.834h4.146c6.012,0,9.428,3.654,9.428,9.553c0,7.918-3.537,11.25-10.078,11.25h-3.496V48.834z
				 M492.865,45.014v28.447h9.309c10.078,0,16.088-5.65,16.088-15.035c0-6.871-3.98-13.412-15.561-13.412H492.865z"/>
		</g>
	</g>
	<g>
		<path style="fill:#E4007F;" d="M22.461,72.219c4.009-0.223,7.781,8.078,9.454,10.488c1.085,1.568,2.164,2.076,3.395,3.535
			c0.42,0.504,2.519,1.633,3.189,1.703c4.038,0.428,6.598-0.961,8.503-1.488c2.583-0.719,4.181-0.777,6.365-2.088
			c2.069-1.244,17.757-7.773,18.597-2.451c0.645,4.107-10.647,10.77-13.176,12.441c-0.547,0.363-0.727,1.27-1.348,1.559
			c-2.805,1.293-13.717,5.531-17.473,4.594c-5.582-1.387-12.623-13.996-14.919-18.805C24.674,80.92,19.549,72.377,22.461,72.219z"/>
		<path style="fill:#E4007F;" d="M54.485,55.904c1.66-0.072,2.898,1.975,3.432,3.084c0.335,0.697,0.207,1.699,0.619,2.336
			c0.646,1.025,2.081,1.281,2.393,2.629c0.928,4.043-5.395,9.475-7.184,11.332c-1.034,1.051-2.58,4.307-3.934,4.789
			c-0.742,0.256-1.381-0.541-2.152-0.086c-2.919,1.719-3.633,3.49-6.611,2.852c-2.832-0.604-1.18-4.828-0.343-8.064
			C42.381,68.301,48.946,56.145,54.485,55.904z"/>
		<path style="fill:#10A035;" d="M74.103,43.6c5.889,0.275,12.303,5.082,14.535,8.381c0.806,1.189,2.291,3.83,1.418,5.227
			c-2.944-0.477-5.791-2.662-9.154-2.898c-5.42-0.381-18.259,1.91-21.666-0.223c1.393-4.178,3.858-5.25,6.354-7.781
			C67.88,43.975,69.712,43.391,74.103,43.6z"/>
		<path style="fill:#F7B146;" d="M34.708,41.045c5.537,0.939,10.236,4.703,11.941,7.709c0.574,1.033,3.073,4.754,1.781,6.002
			c-0.133,0.131-0.422,0.057-0.648,0.105c0.11,0.033-0.588-0.146-0.588-0.146c-1.959-0.652-3.615-0.898-5.538-1.494
			c-3.388-1.078-8.198-2.203-11.578-2.344c-1.163-0.053-2.57,0.412-3.647,0.287c-1.18-0.137-4.563-1.699-6.121-2.307
			c-0.256-0.1-0.838-0.469-1.08-0.66c-0.308-0.248-0.75-0.887-0.781-1.252c-0.256-2.314,3.779-4.582,5.355-5.295
			C26.208,40.547,31.169,40.445,34.708,41.045z"/>
		<path style="fill:#10A035;" d="M86.733,38.623c6.043-0.244,16.631,13.289,14.982,18.539c-2.35,7.469-8.182,9.396-14.65,11.715
			c-1.135,0.404-3.627,1.828-4.782,1.707c-0.813-0.084-0.844-1.076-1.413-1.252c-0.898-0.277-1.806,0.625-2.826,0.504
			c0.596-1.547,4.91-4.707,6.303-5.379c0.582-0.285,4.188-2.451,5.584-3.434c2.926-2.061,3.436-1.6,5.412-4.875
			c0.355-0.594,0.943-1.732,0.686-2.684c-0.625-2.262-5.708-5.559-7.416-7.393c-0.885-0.945-1.475-2.162-2.271-3.162
			C85.575,41.949,83.991,38.73,86.733,38.623z"/>
		<path style="fill:#F7B146;" d="M24.515,28.631c1.191-0.01,1.869,0.859,2.463,1.408c4.908,4.582-8.539,10.676-10.723,11.717
			c-0.34,0.162-0.702,0.283-1.027,0.463c-0.686,0.371-1.283,0.816-1.861,1.32c-0.662,0.572-1.172,1.191-1.706,1.941
			c-0.346,0.484-0.812,1.051-0.757,2.07c0.176,3.42,5.529,5.449,7.125,8.063c1.682,2.76-1.127,2.334-2.965,1.416
			c-1.91-0.959-4.478-2.357-5.998-3.813c-1.659-1.59-6.207-10.123-4.371-13.363c2.307-4.076,6.117-5.5,9.938-7.598
			C16.763,31.072,21.814,28.643,24.515,28.631z"/>
		<path style="fill:#007CC5;" d="M65.819,21.287c0.892,0.031,2.547,2.215,3.169,2.781c0.956,0.869,2.413,2.242,2.685,3.615
			c0.906,4.625-6.316,13.74-8.312,15.723c-0.719,0.699-2.03,0.648-2.658,1.396c-0.313,0.377-0.601,0.844-0.854,1.293
			c-0.232,0.404-0.896,0.637-1.142,1.006c-1.297,1.936-2.513,3.98-3.499,6.031c-0.931-0.531-0.37-0.818-0.866-1.668
			c-0.223-0.379-0.929-0.432-1.132-0.824c-1.356-2.623-0.399-8.453,0.591-11.283c0.282-0.814,1.033-1.564,1.236-2.508
			c0.412-1.922,0.533-3.736,1.498-5.076c0.84-1.178,3.525-4.043,4.213-5.197c0.293-0.502,0.191-1.244,0.438-1.807
			C61.657,23.68,64.444,21.234,65.819,21.287z"/>
		<path style="fill:#007CC5;" d="M74.042,4.516c2.598-0.5,2.811,2.34,4.422,3.986c1.201,1.236,1.85,3.234,2.434,4.939
			c1.218,3.611,0.265,11.125-0.735,13.969c-0.678,1.918-1.818,3.869-3.19,5.068c-0.576,0.498-0.543,0.502-1.352,0.514
			c-0.074-1.6-0.159-15.195-1.646-15.787c-1.484-0.592-11.639,3.049-13.16,3.611c-1.613,0.594-4.465,0.26-5.809-0.959
			c-0.42-0.383-1.779-2.115-1.871-2.631c-0.236-1.391,4.604-5.561,5.633-5.877c1.031-0.318,1.75,0.271,2.773-0.307
			c2.969-1.693,5.684-4.125,9.295-5.049C72.403,5.59,72.678,4.781,74.042,4.516z"/>
	</g>
</g>
</svg>
