<svg id="圖層_1" data-name="圖層 1" xmlns="http://www.w3.org/2000/svg" viewBox="0 0 212.6 212.6"><defs><style>.cls-1,.cls-2{fill:none;}.cls-2{stroke:#1d1d1b;stroke-miterlimit:10;stroke-width:12px;}</style></defs><path class="cls-2" d="M68.93,36.76a41.37,41.37,0,0,0-27.31,71.3l58.06,64.11a10.78,10.78,0,0,0,3.69,2.69,10.62,10.62,0,0,0,4.48.9,11.06,11.06,0,0,0,8.18-3.85l57.24-66.07A41.55,41.55,0,0,0,184.14,78a40.89,40.89,0,0,0-40.4-41.29,40.13,40.13,0,0,0-34.1,19l-3.44,5.48-3.43-5.48a39.88,39.88,0,0,0-33.84-19Z"/></svg>