<?xml version="1.0" encoding="utf-8"?>
<!-- Generator: Adobe Illustrator 25.4.1, SVG Export Plug-In . SVG Version: 6.00 Build 0)  -->
<svg version="1.1" id="レイヤー_1" xmlns="http://www.w3.org/2000/svg" xmlns:xlink="http://www.w3.org/1999/xlink" x="0px"
	 y="0px" viewBox="0 0 120 120" style="enable-background:new 0 0 120 120;" xml:space="preserve">
<style type="text/css">
	.st0{fill:#50A46A;}
	.st1{fill:#333333;}
	.st2{fill:rgba(18,148,71,1);}
</style>
<!-- <rect class="st0" width="120" height="120"/> -->
<g>
	<g>
		<g>
			<path class="st2" d="M43.96,75.43c-0.04-1.06-0.17-2.11-0.18-3.17c-0.01-1.18,0.12-2.32,0.18-3.5c0.11-2.35,0.26-4.71,0.51-7.06
				c0.24-2.28,0.59-4.55,0.82-6.84c0.23-2.26,0.33-4.53,0.58-6.79c0.09-0.86,0.08-1.75,0.32-2.58c0.25-0.87,1.11-1.55,1.81-2.11
				c1.52-1.21,3.92-1.52,5.78-1.78c4.56-0.62,9.28-0.33,13.87-0.38c2.31-0.03,4.43,0.21,6.64,0.91c0.78,0.24,1.63,0.45,2.36,0.81
				c0.85,0.42,0.83,1.38,1.04,2.22c1,3.97,1.51,8.08,1.47,12.18c-0.04,4.65,0.28,9.33-0.51,13.92c-0.15,0.89-0.36,1.82-0.85,2.59
				c-0.47,0.75-0.74,1.09-1.61,1.2c-1,0.13-1.99,0.51-2.99,0.59c-1.2,0.09-2.43,0.16-3.64,0.16c-2.53,0.01-5.13-0.26-7.65,0.03
				c-2.44,0.28-4.93,0.14-7.39,0.14c-1.26,0-2.53,0.03-3.79,0c-1.04-0.03-2.12-0.29-3.17-0.42c-0.94-0.12-1.86-0.09-2.78-0.33
				c-0.32-0.08-0.69-0.28-1.01-0.32c-0.53-0.07,0.04-0.09,0,0.36c0.22-2.6-3.83-2.58-4.05,0c-0.37,4.43,7.05,4.22,9.71,4.65
				c2.58,0.42,5.42,0.12,8.03,0.12c1.18,0,2.39,0.09,3.56,0.01c1.32-0.09,2.58-0.25,3.91-0.25c2.62,0.01,5.22-0.04,7.83-0.09
				c1.26-0.03,2.36-0.41,3.58-0.6c1.28-0.21,2.38-0.31,3.39-1.24c1.77-1.64,2.58-3.91,2.91-6.24c0.18-1.29,0.46-2.56,0.53-3.87
				c0.08-1.44,0.01-2.9,0.01-4.34c0-5.23,0.06-10.36-0.81-15.53c-0.18-1.07-0.38-2.17-0.64-3.22c-0.28-1.17-0.48-2.42-1.12-3.45
				c-1.23-1.99-3.83-2.56-5.93-3.18c-2.62-0.77-5.26-0.89-7.97-0.83c-2.62,0.06-5.23,0.01-7.84,0.05c-2.66,0.04-5.34,0.22-7.95,0.77
				c-2.63,0.55-4.68,1.47-6.65,3.29c-2.24,2.08-2.21,4.6-2.56,7.45c-0.35,2.89-0.44,5.8-0.8,8.69c-0.38,3.01-0.67,6-0.88,9.02
				c-0.1,1.44-0.24,2.88-0.32,4.32c-0.09,1.56,0.13,3.1,0.18,4.65C40,78.03,44.05,78.04,43.96,75.43L43.96,75.43z"/>
		</g>
	</g>
	<g>
		<g>
			<path class="st2" d="M57.46,65.49c0.23,0.03-0.16-0.08-0.16-0.08c0.16,0.09-0.3-0.17-0.32-0.18c-0.25-0.15-0.44-0.31-0.65-0.51
				c-0.51-0.48-0.93-1.03-1.24-1.66c-0.76-1.57-0.85-3.41-0.87-5.13c-0.02-1.5,0.42-2.64,1.52-3.65c1.06-0.98,2.11-1.73,3.55-2.16
				c1.37-0.42,2.99-0.52,4.48-0.34c1.27,0.15,2.2,1.08,2.84,2.14c0.86,1.42,1.29,3.21,1.65,4.81c0.19,0.84,0.2,1.66,0.2,2.52
				c0,0.65-0.03,1.58-0.35,2.16c-0.26,0.47-1.08,1.17-1.54,1.49c-0.75,0.52-1.54,0.27-2.41,0.41c-0.55,0.09-1.05,0.29-1.59,0.4
				c-0.44,0.09-0.89,0.07-1.35,0.07c-0.75,0-1.78,0.21-2.38,0.02c0.47,0.47,0.94,0.94,1.41,1.41c-0.01-0.08-0.03-0.15-0.04-0.23
				c-0.19-1.08-1.51-1.68-2.49-1.41c-1.14,0.31-1.61,1.41-1.41,2.49c0.01,0.08,0.03,0.15,0.04,0.23c0.12,0.69,0.78,1.22,1.41,1.41
				c1.04,0.32,2.07,0.14,3.13,0.12c0.53-0.01,1.06,0.02,1.59-0.03c0.82-0.08,1.6-0.47,2.41-0.54c0.56-0.05,1.1,0.05,1.68-0.05
				c0.54-0.09,1.04-0.28,1.53-0.53c1.04-0.53,1.89-1.4,2.7-2.22c1.69-1.72,1.83-4.53,1.66-6.81c-0.17-2.35-0.94-4.93-1.97-7.05
				c-0.97-2-2.69-3.84-4.84-4.55c-1.98-0.66-4.64-0.49-6.67-0.05c-4.3,0.93-8.48,4.41-8.82,9c-0.37,4.95,1.48,11.81,7.27,12.54
				c1.09,0.14,2.02-1.03,2.02-2.03C59.48,66.3,58.55,65.63,57.46,65.49L57.46,65.49z"/>
		</g>
	</g>
	<g>
		<g>
			<path class="st2" d="M72.14,46.14c-0.02,0-0.05,0.01-0.07,0.01c0.18-0.02,0.36-0.05,0.54-0.07c-0.09,0.01-0.19,0.01-0.28,0
				c0.18,0.02,0.36,0.05,0.54,0.07c-0.1-0.01-0.19-0.04-0.28-0.07c0.16,0.07,0.32,0.14,0.48,0.2c-0.09-0.04-0.18-0.09-0.26-0.16
				c0.14,0.11,0.27,0.21,0.41,0.32c-0.09-0.07-0.17-0.15-0.23-0.24c0.11,0.14,0.21,0.27,0.32,0.41c-0.09-0.11-0.16-0.24-0.22-0.37
				c0.07,0.16,0.14,0.32,0.2,0.48c-0.05-0.13-0.09-0.27-0.11-0.41c0.02,0.18,0.05,0.36,0.07,0.54c-0.01-0.12-0.02-0.23,0-0.35
				c-0.02,0.18-0.05,0.36-0.07,0.54c0.01-0.1,0.04-0.19,0.07-0.28c-0.07,0.16-0.14,0.32-0.2,0.48c0.03-0.08,0.07-0.15,0.12-0.22
				c-0.11,0.14-0.21,0.27-0.32,0.41c0.05-0.06,0.1-0.12,0.17-0.17c-0.14,0.11-0.27,0.21-0.41,0.32c0.07-0.05,0.14-0.1,0.22-0.13
				c-0.16,0.07-0.32,0.14-0.48,0.2c0.06-0.03,0.13-0.05,0.2-0.06c-0.18,0.02-0.36,0.05-0.54,0.07c0.07-0.01,0.13-0.01,0.19,0
				c-0.18-0.02-0.36-0.05-0.54-0.07c0.08,0.01,0.15,0.03,0.22,0.06c-0.16-0.07-0.32-0.14-0.48-0.2c0.08,0.04,0.15,0.08,0.22,0.13
				c-0.14-0.11-0.27-0.21-0.41-0.32c0.09,0.07,0.18,0.16,0.25,0.26c-0.11-0.14-0.21-0.27-0.32-0.41c0.09,0.12,0.17,0.26,0.23,0.4
				c-0.07-0.16-0.14-0.32-0.2-0.48c0.06,0.14,0.1,0.28,0.12,0.42c-0.02-0.18-0.05-0.36-0.07-0.54c0.01,0.11,0.02,0.22,0,0.33
				c0.02-0.18,0.05-0.36,0.07-0.54c-0.01,0.08-0.03,0.17-0.06,0.25c0.07-0.16,0.14-0.32,0.2-0.48c-0.03,0.06-0.06,0.12-0.11,0.18
				c0.11-0.14,0.21-0.27,0.32-0.41c-0.04,0.05-0.08,0.09-0.12,0.12c-0.2,0.18-0.34,0.4-0.42,0.65c-0.13,0.24-0.18,0.5-0.17,0.78
				c-0.01,0.28,0.05,0.54,0.17,0.78c0.08,0.25,0.22,0.47,0.42,0.65c0.39,0.35,0.89,0.62,1.43,0.59c0.18-0.02,0.36-0.05,0.54-0.07
				c0.34-0.1,0.64-0.27,0.89-0.52c0.21-0.17,0.38-0.4,0.51-0.64c0.1-0.19,0.19-0.4,0.26-0.6c0.02-0.05,0.03-0.11,0.04-0.16
				c0.05-0.27,0.11-0.57,0.08-0.86c-0.03-0.28-0.05-0.58-0.14-0.86c-0.02-0.06-0.04-0.11-0.06-0.17c-0.08-0.21-0.17-0.42-0.27-0.63
				c-0.13-0.25-0.33-0.48-0.5-0.7c-0.36-0.44-0.86-0.71-1.39-0.9c-0.05-0.02-0.1-0.03-0.15-0.04c-0.19-0.04-0.4-0.06-0.59-0.08
				c-0.03,0-0.06,0-0.09,0c-0.03,0-0.05,0-0.08,0c-0.19,0.02-0.41,0.04-0.6,0.08c-0.14,0.03-0.27,0.1-0.4,0.15
				c-0.13,0.05-0.26,0.1-0.38,0.18c-0.19,0.12-0.38,0.27-0.55,0.42c-0.1,0.09-0.18,0.21-0.27,0.32c-0.09,0.11-0.18,0.22-0.25,0.35
				c-0.1,0.2-0.19,0.41-0.26,0.62c-0.02,0.05-0.03,0.11-0.04,0.16c-0.04,0.23-0.08,0.46-0.09,0.69c0,0.06,0,0.12,0,0.18
				c0.02,0.28,0.05,0.59,0.13,0.87c0.04,0.14,0.1,0.27,0.16,0.4c0.06,0.13,0.11,0.28,0.18,0.4c0.03,0.06,0.07,0.12,0.11,0.17
				c0.14,0.19,0.27,0.38,0.43,0.55c0.2,0.21,0.45,0.4,0.7,0.55c0.2,0.11,0.43,0.2,0.64,0.28c0.07,0.02,0.13,0.04,0.2,0.05
				c0.23,0.04,0.48,0.09,0.72,0.08c0.25,0,0.5-0.05,0.74-0.1c0.26-0.06,0.49-0.18,0.69-0.36c0.22-0.14,0.39-0.33,0.52-0.57
				c0.15-0.23,0.23-0.48,0.24-0.75c0.06-0.27,0.05-0.54-0.04-0.81c-0.16-0.49-0.46-0.96-0.93-1.21c-0.16-0.07-0.32-0.14-0.48-0.2
				C72.85,46.04,72.49,46.04,72.14,46.14L72.14,46.14z"/>
		</g>
	</g>
	<g>
		<g>
			<path class="st2" d="M61.59,91.83c-1.92,0-3.83-0.01-5.75-0.01c-1.97,0-3.97,0.12-5.92-0.13c-3.44-0.45-7.02-1.72-10.16-3.19
				c-2.84-1.33-5.32-3.17-7.4-5.54c-1.1-1.25-2.14-2.56-2.97-4c-0.92-1.63-1.5-3.47-2.04-5.25c-1-3.28-1.43-6.69-1.66-10.1
				c-0.25-3.63,0.06-6.94,1.39-10.35c1.31-3.34,3.08-6.51,4.99-9.54c1.89-2.98,3.84-6.15,6.39-8.62c4.75-4.6,11.59-6.95,17.96-8.18
				c1.81-0.35,3.62-0.55,5.45-0.7c2.08-0.17,4.16-0.42,6.25-0.34c1.64,0.06,3.22,0.47,4.84,0.67c1.7,0.21,3.07,0.58,4.63,1.29
				c2.72,1.24,5.73,2.27,7.81,4.51c1.12,1.21,1.98,2.76,2.71,4.23c0.86,1.72,1.76,3.43,2.58,5.17c1.47,3.11,2.02,6.92,2.28,10.33
				c0.29,3.84,0.08,7.74,0.09,11.59c0,2.2-0.2,4.27-0.72,6.41c-0.47,1.91-0.93,3.96-1.97,5.65c-0.94,1.53-1.85,3.24-3.04,4.59
				c-1.17,1.33-2.68,2.41-4.07,3.49c-2.95,2.3-6.16,4.45-9.72,5.67c-4.02,1.38-8.43,2.31-12.69,2.34c-2.6,0.02-2.6,4.06,0,4.04
				c7.95-0.06,16.07-2.52,22.54-7.14c2.99-2.13,6.24-4.4,8.28-7.5c1-1.52,2.14-3.11,2.88-4.77c0.81-1.83,1.32-3.78,1.79-5.72
				c0.99-4.15,0.69-8.33,0.75-12.55c0.07-4.24-0.19-8.34-1.01-12.51c-0.8-4.07-2.71-7.64-4.58-11.31c-1.7-3.35-3.99-6.08-7.32-7.87
				c-1.47-0.79-3.03-1.42-4.55-2.11c-1.74-0.79-3.3-1.44-5.2-1.68c-1.94-0.24-3.87-0.69-5.83-0.81c-2.17-0.14-4.34,0.12-6.5,0.29
				c-7.65,0.63-15.49,2.46-22.05,6.6c-3.22,2.03-5.72,4.61-7.93,7.68c-2.37,3.31-4.62,6.72-6.49,10.33
				c-1.84,3.53-3.48,7.26-3.92,11.24c-0.42,3.81,0.09,7.65,0.59,11.43c0.52,3.89,1.66,8.11,3.61,11.54c1.79,3.14,4.4,6.03,7.26,8.22
				c3,2.3,6.47,3.69,10.01,4.92c1.85,0.64,3.73,1.17,5.66,1.45c2.09,0.31,4.16,0.28,6.27,0.28c2.16,0,4.31,0.01,6.47,0.01
				C64.19,95.86,64.19,91.83,61.59,91.83L61.59,91.83z"/>
		</g>
	</g>
</g>
</svg>
