<svg id="圖層_1" data-name="圖層 1" xmlns="http://www.w3.org/2000/svg" viewBox="0 0 212.6 212.6"><defs><style>.cls-1,.cls-2{fill:none;}.cls-2{stroke:#1d1d1b;stroke-miterlimit:10;}.cls-3{fill:#1d1d1b;}</style></defs><rect class="cls-1" x="0.05" width="212.54" height="212.54"/><path class="cls-2" d="M134.49,117.78a47.37,47.37,0,0,0,7.61-57.23A48.15,48.15,0,0,0,100.48,37a49,49,0,0,0-24,6.46,47.28,47.28,0,0,0-21.9,29,46.58,46.58,0,0,0,5,35.8,48.32,48.32,0,0,0,54,21.5,49.62,49.62,0,0,0,11.12-4.67A53.81,53.81,0,0,0,134.49,117.78Z"/><path class="cls-3" d="M128.9,131.65a21.85,21.85,0,0,1-4,3,34.41,34.41,0,0,1-4,1.72l27.51,51.12a4.76,4.76,0,0,0,6.38,1.55l.05,0a4.08,4.08,0,0,0,1.76-2.77,4.59,4.59,0,0,0-.45-3.44Z"/></svg>